<svg xmlns="http://www.w3.org/2000/svg" viewBox="0 0 284.94 116.08"><defs><style>.cls-1{fill:#4dc1b5;}.cls-2{fill:#020302;}</style></defs><title>aiga-presents</title><g id="Layer_2" data-name="Layer 2"><g id="Group_57" data-name="Group 57"><g id="Group_54" data-name="Group 54"><path id="Path_76" data-name="Path 76" class="cls-1" d="M73.52,36.06c-.2.23-5.38,5.8-5.69,6.11s-.31.74.46.74h4.95c.7,0,.89-.23.89-.66s.08-5.45.08-6S73.86,35.64,73.52,36.06Z"/><path id="Path_77" data-name="Path 77" class="cls-1" d="M12.54,43h4.95c.7,0,.89-.23.89-.66s.08-5.46.08-6-.35-.58-.7-.15c-.2.23-5.42,5.8-5.69,6.11S11.76,43,12.54,43Z"/><path id="Path_78" data-name="Path 78" class="cls-1" d="M83.77,0H0V52.43l.08,0a9.55,9.55,0,0,0,2-1c.31-.19,18.53-20,18.84-20.35.08-.08.2-.08.24,0s-.2,19-.2,19.27a.93.93,0,0,0,.58,1c.47.23,2.28,1,2.52,1.08.07,0,0,.11-.12.11H13.77s-.15,0,0-.07,3.4-1.12,3.63-1.2c.5-.16.62-.27.66-1s.23-5.18.23-5.45.08-.82-.65-.89c-.31,0-1.47-.12-2.64-.16-1.39,0-2.86,0-3.1,0a1.68,1.68,0,0,0-1.39.39c-.35.27-5.26,6.31-5.42,6.58s-.15.58.35.73,3.64.81,4.34.93c.11,0,.07.16-.08.16H0V83.65H83.77ZM35.6,32.85a1.4,1.4,0,0,0-.81.89c-.12.31-3.95,16.52-4,16.79s-.11.7.31.85,2.63,1,2.83,1,.11.19-.08.19h-9.4c-.16,0-.27,0-.12-.11l2.48-.93a1.38,1.38,0,0,0,.93-.78c.11-.35,4.06-16.64,4.14-16.94s0-.82-.43-1c-.23-.12-2.67-.93-2.74-1s-.12-.11,0-.11h9.9c.12,0,.19.07.08.11s-1.78.5-1.94.58A3.7,3.7,0,0,0,35.6,32.85ZM54.71,51.27a22.42,22.42,0,0,1-6.77,1.47C39.74,53,36.72,47.21,38.15,42A13.89,13.89,0,0,1,43,34.9a17.43,17.43,0,0,1,10.29-3.44,23.8,23.8,0,0,1,5.19.58c.89.23.73.7.66,1.08,0,.16-2,6-2.05,6.11s-.27.24-.27,0S57,34,57,33.74c0-.54,0-.89-.62-1.05a14,14,0,0,0-7.86.78c-5,2.32-7.89,7.7-7.31,12C41.67,49,44.5,51.89,49,52a9,9,0,0,0,2.74-.27.76.76,0,0,0,.62-.5c.08-.27.85-3.4.85-3.56s.24-.58-.23-.7-4.52-1.2-4.72-1.28-.11-.15,0-.15h7.62c.31,0,1.12-.08.89.7s-1.39,4.41-1.47,4.64A1.2,1.2,0,0,1,54.71,51.27Zm25,1.31H69.57s-.15,0,0-.07,3.37-1.13,3.64-1.2c.5-.16.62-.27.66-1.05s.23-5.18.23-5.45.08-.82-.66-.89c-.35,0-1.47-.12-2.63-.16-1.39,0-2.86,0-3.1,0a1.8,1.8,0,0,0-1.43.39c-.35.27-5.23,6.31-5.42,6.58s-.12.58.39.73,3.63.81,4.33.93c.08,0,.08.16-.08.16h-9.6c-.07,0-.07-.12,0-.16a9.24,9.24,0,0,0,2-1c.35-.19,18.53-20,18.84-20.35.08-.07.19-.07.23,0s-.19,19-.19,19.27a1,1,0,0,0,.58,1c.46.23,2.28,1,2.51,1.08s.09.23-.06.23Z"/></g><g id="Group_55" data-name="Group 55"><path id="Path_79" data-name="Path 79" class="cls-2" d="M108.8,0c6,0,10.6,3.17,11.88,9l-6.46,2.59c-.7-3.21-2.67-4.49-5.46-4.49s-4.33,1.39-4.33,3.17c0,2.56,2.75,3.25,6.54,4.49,4.84,1.59,9.36,3.91,9.36,10.56s-5,10.33-11.53,10.33c-5.49,0-10.56-2.67-11.91-9l6.38-2.75c.7,3.18,2.55,4.65,5.61,4.65,2.75,0,4.33-1.24,4.33-3.22,0-2.67-2.78-3.36-6.3-4.45-4.49-1.43-9.6-3.83-9.6-10.64C97.31,3.75,102.23,0,108.8,0Z"/><path id="Path_80" data-name="Path 80" class="cls-2" d="M136,9.63c7.43,0,11.15,3.25,11.15,10.33V35.71h-6.74V32.23a9,9,0,0,1-7.85,4c-5,0-8.63-3.25-8.63-7.93s3.48-7.55,8.16-8l7-.62c1-.12,1.31-.43,1.31-1v-.43c0-1.47-1.43-2.55-4.45-2.55-2.63,0-5.41.81-6.38,3.25l-5-3.56C126.33,11.57,130.47,9.63,136,9.63Zm4.41,14.75-6.3.77c-2.09.31-3.18,1.39-3.18,2.79,0,1.62,1.28,2.7,3.64,2.7,3.56,0,5.84-2.43,5.84-5.26Z"/><path id="Path_81" data-name="Path 81" class="cls-2" d="M167.31,9.6c6,0,9,3.86,9,10.29V35.68h-6.85V21.55c0-3.83-1.78-5.49-4.64-5.49-3.91,0-5.57,2.9-5.57,7.43V35.68h-6.73V10.18h6.54v3.67A9.83,9.83,0,0,1,167.31,9.6Z"/><path id="Path_82" data-name="Path 82" class="cls-2" d="M124.24,78.16H105.48l-2.6,5.61H95L111.55,48.1h6.62l16.52,35.67h-7.86ZM108.8,71h12.11l-6.07-13.16Z"/><path id="Path_83" data-name="Path 83" class="cls-2" d="M152.45,57.69c6,0,9,3.87,9,10.29V83.77h-6.88V69.65c0-3.83-1.78-5.5-4.65-5.5-3.9,0-5.57,2.9-5.57,7.43V83.77h-6.73V58.27h6.54V62A10,10,0,0,1,152.45,57.69Z"/><path id="Path_84" data-name="Path 84" class="cls-2" d="M176.9,84c-4.72,0-7.5-2.24-7.5-8.05V64h-4.65V58.31h4.65V51.46h6.73v6.81h6.5v5.65h-6.46V75c0,1.62.81,2.28,2.55,2.28a21,21,0,0,0,3.71-.43v6.39A22.47,22.47,0,0,1,176.9,84Z"/><path id="Path_85" data-name="Path 85" class="cls-2" d="M199,57.69c7.86,0,13.7,5.42,13.7,13.35S206.81,84.39,199,84.39,185.26,79,185.26,71,191.1,57.69,199,57.69Zm0,6.58A6.77,6.77,0,1,0,205.73,71h0a6.52,6.52,0,0,0-6.26-6.77Z"/><path id="Path_86" data-name="Path 86" class="cls-2" d="M231.42,57.69c6,0,9,3.87,9,10.29V83.77h-6.89V69.65c0-3.83-1.78-5.5-4.64-5.5-3.91,0-5.58,2.9-5.58,7.43V83.77H216.6V58.27h6.54V62A10,10,0,0,1,231.42,57.69Z"/><path id="Path_87" data-name="Path 87" class="cls-2" d="M249.84,46.66a4.32,4.32,0,1,1,0,8.63h0a4.2,4.2,0,0,1-4.3-4.08V51a4.26,4.26,0,0,1,4.16-4.34Zm3.37,11.61v25.5h-6.74V58.27Z"/><path id="Path_88" data-name="Path 88" class="cls-2" d="M271.24,57.69c7.85,0,13.7,5.42,13.7,13.35s-5.89,13.35-13.7,13.35S257.54,79,257.54,71,263.38,57.69,271.24,57.69Zm0,6.58A6.77,6.77,0,1,0,278,71h0a6.52,6.52,0,0,0-6.26-6.77Z"/></g><g id="Group_56" data-name="Group 56"><path id="Path_89" data-name="Path 89" class="cls-1" d="M100.14,98.67a5.84,5.84,0,1,1,.15,11.68h-4.1V116H94V98.67Zm0,2.24h-4v7.24h4a3.62,3.62,0,0,0,0-7.24Z"/><path id="Path_90" data-name="Path 90" class="cls-1" d="M121.34,116H119.1V98.67h6.65a5.85,5.85,0,0,1,2.79,11l5.1,6.34h-2.9l-4.6-5.69h-4.8Zm3-7.93a12.62,12.62,0,0,0,2.67-.23,3.6,3.6,0,0,0,2.32-3.37,3.54,3.54,0,0,0-3.49-3.6h-4.52V108h3Z"/><path id="Path_91" data-name="Path 91" class="cls-1" d="M156.78,98.67v2.24h-8.4v5.34h8.4v2.24h-8.4v5.34h8.4v2.25H146.14V98.67Z"/><path id="Path_92" data-name="Path 92" class="cls-1" d="M175,98.67a5.45,5.45,0,0,1,5.46,4.14l-2.09.85a3.27,3.27,0,0,0-3.4-2.79c-1.94,0-2.94,1.12-2.94,2.48,0,1.7,1.47,2.24,3.4,2.86,2.7.89,4.79,1.94,4.79,5,0,3.25-2.43,4.8-5.1,4.8a5.38,5.38,0,0,1-5.53-4.14l2-1a3.39,3.39,0,0,0,3.52,2.94c1.78,0,2.9-.89,2.9-2.52,0-1.85-1.51-2.36-3.06-2.86-2.24-.73-5.14-1.74-5.14-5.07C169.75,100.37,172.18,98.67,175,98.67Z"/><path id="Path_93" data-name="Path 93" class="cls-1" d="M204.45,98.67v2.24h-8.4v5.34h8.4v2.24h-8.4v5.34h8.4v2.25H193.81V98.67Z"/><path id="Path_94" data-name="Path 94" class="cls-1" d="M233.47,98.67V116h-2.24l-11.07-13.73V116h-2.24V98.67h2.24l11.07,13.77V98.67Z"/><path id="Path_95" data-name="Path 95" class="cls-1" d="M254.75,100.91V116h-2.24V100.91H245.7V98.67h15.86v2.24Z"/><path id="Path_96" data-name="Path 96" class="cls-1" d="M278,98.67a5.43,5.43,0,0,1,5.45,4.14l-2.09.85a3.26,3.26,0,0,0-3.4-2.79c-1.94,0-2.94,1.12-2.94,2.48,0,1.7,1.47,2.24,3.4,2.86,2.71.89,4.8,1.94,4.8,5,0,3.25-2.44,4.8-5.11,4.8a5.38,5.38,0,0,1-5.53-4.14l2-1a3.4,3.4,0,0,0,3.52,2.94c1.78,0,2.9-.89,2.9-2.52,0-1.85-1.51-2.36-3.05-2.86-2.25-.73-5.15-1.74-5.15-5.07C272.78,100.37,275.22,98.67,278,98.67Z"/></g></g></g></svg>