<?xml version="1.0" encoding="utf-8"?>
<!-- Generator: Adobe Illustrator 24.0.3, SVG Export Plug-In . SVG Version: 6.00 Build 0)  -->
<svg version="1.1" id="Capa_1" xmlns="http://www.w3.org/2000/svg" xmlns:xlink="http://www.w3.org/1999/xlink" x="0px" y="0px"
	 viewBox="0 0 96.1 96.1" style="enable-background:new 0 0 96.1 96.1;" xml:space="preserve">
<style type="text/css">
	.st0{fill:#FEF9E2;}
</style>
<title>facebook-icon-white</title>
<path class="st0" d="M72.1,0H59.6c-14,0-23,9.3-23,23.7v10.9H24c-1.1,0-2,0.9-2,2v15.8c0,1.1,0.9,2,2,2h12.6v39.8c0,1.1,0.9,2,2,2
	h16.3c1.1,0,2-0.9,2-2V54.3h14.6c1.1,0,2-0.9,2-2V36.5c0-1.1-0.9-2-2-2H56.8v-9.2c0-4.5,1.1-6.7,6.8-6.7h8.4c1.1,0,2-0.9,2-2V2
	C74.1,0.9,73.2,0,72.1,0z"/>
</svg>
