<svg xmlns="http://www.w3.org/2000/svg" viewBox="0 0 1920 1080"><defs><style>.cls-1,.cls-3,.cls-4,.cls-8{fill:none;stroke:#282b49;}.cls-1,.cls-4,.cls-8{stroke-linecap:round;stroke-linejoin:round;}.cls-1{stroke-width:3.27px;}.cls-2{fill:#89d3dd;}.cls-3{stroke-miterlimit:10;}.cls-3,.cls-4{stroke-width:2.23px;}.cls-5{fill:#e33293;}.cls-6{fill:#f2d525;}.cls-7{fill:#6269b1;}.cls-8{stroke-width:2.23px;}</style></defs><title>shapes-bkd-desk-1</title><g id="Layer_2" data-name="Layer 2"><line class="cls-1" x1="173.78" y1="473.03" x2="191.6" y2="474.08"/><line class="cls-1" x1="183.21" y1="464.64" x2="182.17" y2="482.47"/><line class="cls-1" x1="1724.49" y1="290.09" x2="1742.32" y2="291.14"/><line class="cls-1" x1="1733.93" y1="281.7" x2="1732.88" y2="299.53"/><line class="cls-1" x1="1801" y1="543" x2="1818.83" y2="544.05"/><line class="cls-1" x1="1810.44" y1="534.61" x2="1809.39" y2="552.44"/><line class="cls-1" x1="1612.33" y1="777" x2="1630.16" y2="778.04"/><line class="cls-1" x1="1621.77" y1="768.6" x2="1620.72" y2="786.43"/><line class="cls-1" x1="1652.9" y1="441.2" x2="1670.73" y2="442.25"/><line class="cls-1" x1="1662.34" y1="432.81" x2="1661.29" y2="450.64"/><line class="cls-1" x1="655.52" y1="99.04" x2="673.34" y2="100.09"/><line class="cls-1" x1="664.95" y1="90.65" x2="663.91" y2="108.48"/><line class="cls-1" x1="451.75" y1="931.62" x2="469.58" y2="932.67"/><line class="cls-1" x1="461.19" y1="923.23" x2="460.14" y2="941.06"/><line class="cls-1" x1="951.09" y1="164.45" x2="968.91" y2="165.5"/><line class="cls-1" x1="960.52" y1="156.06" x2="959.48" y2="173.89"/><line class="cls-1" x1="110.38" y1="661.6" x2="128.21" y2="662.65"/><line class="cls-1" x1="119.82" y1="653.21" x2="118.77" y2="671.04"/><g id="Group_29" data-name="Group 29"><path id="Path_20" data-name="Path 20" class="cls-2" d="M1395.24,184.21a1.27,1.27,0,0,1,.34.67c18.24,29.78,20.41,66.25,26.43,100.55,2.51,13.89,6.19,28.78,17.07,38,8.2,7,19.41,9.7,30.28,10.7,35.13,3.52,71.61-8.2,98.37-31.28A132.58,132.58,0,0,0,1612.91,210c.83-16.73-1-35.14,9.37-48.19,9-11,24.42-14.55,38.64-14.89,34.3-.67,68.26,12.38,102.06,7a96.65,96.65,0,0,0,70.26-52c13.39-27.1,12.55-60.9-1.84-87.33-13.38-24.6-36.8-41.83-60.22-57s-48-29.78-66.09-51-28.78-51.53-18.74-77.63c8-21.41,28.61-37,34.13-59.22,6.19-24.6-8.53-51-29.78-65.09-21.25-13.88-47.68-17.57-73.11-18.23-27.6-.67-56.38,2.34-80.47,15.89-38.82,21.92-57.89,66.09-83,103.06-8,11.88-17.9,23.76-31.46,28.27-9.7,3.18-20.24,2.35-30.45,1.18-26.26-2.85-52.53-4.35-78.46-10.71-26.6-6.69-53.2-15.73-81-13.89-33.46,2.34-49.85,21.42-68.59,46-17.4,22.75-28.61,50.19-31.12,78.8-4.52,50.36,18.24,102.56,58.22,133.51,31.46,24.42,70.94,35.47,108.25,49.35C1336.52,131.68,1374.33,150.58,1395.24,184.21Z"/><circle id="Ellipse_1" data-name="Ellipse 1" class="cls-3" cx="1235.47" cy="114.78" r="50.19"/><g id="Group_12" data-name="Group 12"><line id="Line_1" data-name="Line 1" class="cls-4" x1="1315.61" y1="280.41" x2="1336.02" y2="280.41"/><line id="Line_2" data-name="Line 2" class="cls-4" x1="1325.81" y1="270.2" x2="1325.81" y2="290.62"/></g></g><g id="Group_28" data-name="Group 28"><path id="Path_21" data-name="Path 21" class="cls-5" d="M2109.5,997.1c.17-.16.17-.49.33-.65,12.33-32.06,39.46-55.4,62.64-80.72,9.37-10.2,18.57-22,19.4-35.84.66-10.69-4.11-20.88-9.7-29.92a128.59,128.59,0,0,0-177.09-41.31q-2.82,1.76-5.56,3.66c-13.48,9.37-26.8,21.87-43.23,21.54-14-.33-26-10.36-34.69-21.37-21-26.3-31.24-60.67-55.73-83.85-21.54-20.38-53.43-29.59-82.53-23.67s-54.91,26.63-66.91,53.76c-11.18,25.15-10.68,53.76-8.55,81s5.59,55.23-.16,82-23,53.27-49.32,61.16c-21.53,6.41-45.87-.17-66.58,8.71-23,9.86-34.69,37.15-32.88,62.14s14.8,47.68,29.59,67.9c16.11,21.87,35.51,42.58,60.5,53.27,40.28,17.1,86.15,5.59,129.88,3.12,14.13-.82,29.26-.33,40.93,7.56,8.39,5.59,13.81,14.47,19.07,23,13.48,22.19,28.11,43.56,38.63,67.57,10.69,24.66,19.57,51,37.65,71.51,21.87,24.66,46.53,26.14,76.94,26a150,150,0,0,0,80.06-22.85c42.08-26.63,69-75.46,69.37-125.27.17-39.12-14.8-76.44-26.3-113.93S2095.86,1033.44,2109.5,997.1Z"/><path id="Path_24" data-name="Path 24" class="cls-4" d="M1742.41,901.59l-55.07-38.14-60.67,28.77L1621.25,959l55.24,38.14,60.5-28.76Z"/><g id="Group_27" data-name="Group 27"><line id="Line_1-2" data-name="Line 1-2" class="cls-4" x1="1507.68" y1="1007.21" x2="1528.28" y2="1007.21"/><line id="Line_2-2" data-name="Line 2-2" class="cls-4" x1="1517.98" y1="996.91" x2="1517.98" y2="1017.51"/></g></g><g id="Group_26" data-name="Group 26"><path id="Path_22" data-name="Path 22" class="cls-6" d="M103.44,1205.23c.12.13.25.38.38.51,17,22.37,21.6,51.25,29.26,78.22,3.07,10.86,7.29,22.49,16.62,28.88,7.16,5,16.23,6.13,25.05,6.13a105.29,105.29,0,0,0,104.94-105.65c0-1.72-.05-3.43-.14-5.15-.77-13.41-3.71-28,3.58-39.23,6.26-9.59,18.4-13.55,29.77-15,27.35-3.33,55.6,4.34,82.18-2.69,23.51-6.26,43.58-24.41,52-47.16s5.12-49.58-8.56-69.78c-12.65-18.53-32.72-30.41-52.78-40.76s-40.77-19.94-57-35.4-27.09-38.86-21.34-60.58c4.73-17.77,19.81-31.83,22.49-50.1,2.94-20.2-11-40.13-29.14-49.59s-39.49-10.22-59.94-8.69c-22.11,1.79-44.86,6.39-63,19.17-29.27,20.7-40.9,57.51-58,89.08-5.5,10.22-12.4,20.44-22.87,25.17-7.54,3.33-16,3.45-24.16,3.33-21.34-.13-42.43.76-63.51-2.18-21.73-3.2-43.84-8.3-65.95-4.47-26.58,4.6-38.08,21.09-51.12,42.3a123.29,123.29,0,0,0-18.53,65.44c.51,40.64,22.87,80.51,57.25,102.11,27.1,17,59.56,22.62,90.49,30.67S84,1180.05,103.44,1205.23Z"/><path id="Path_25" data-name="Path 25" class="cls-4" d="M348.43,913.21l5.5,41.79-39-16.1-39-16.1,33.49-25.56,33.35-25.7Z"/><g id="Group_14" data-name="Group 14"><line id="Line_3" data-name="Line 3" class="cls-4" x1="240.05" y1="842.02" x2="255.65" y2="842.02"/><line id="Line_4" data-name="Line 4" class="cls-4" x1="247.85" y1="834.22" x2="247.85" y2="849.82"/></g></g><g id="Group_30" data-name="Group 30"><path id="Path_23" data-name="Path 23" class="cls-7" d="M279.41,255.92h.83c34.81.16,66.78,17.32,98.92,30.14,13.16,5.16,27.65,9.66,41,5.5,10.33-3.33,18.32-11.32,25-20A130.27,130.27,0,0,0,420.45,89q-2.68-2.05-5.48-4c-13.66-9.33-30.31-17.49-35.8-33.14-4.66-13.32.5-28.31,7.66-40.47C404.15-17.86,433-40,446.11-71.48c11.66-27.81,8.83-61.28-7.32-86.76s-44.8-42.47-74.94-44.13c-27.81-1.5-54.62,9.32-79.77,21.15s-50.29,25.14-77.77,29.31-58.62-2.67-75.61-24.65c-13.82-18.16-16.49-43.47-32.31-60C80.74-254.67,50.6-256,27.78-245.18,4.8-234.35-12-214-25.84-192.72c-15,23.15-27.48,49-28.64,76.44C-56.32-72-28.67-32.68-10.68,8-4.85,21.11.14,35.59-3.19,49.42c-2.33,9.82-8.66,18.31-15,26.31C-34.33,96.54-49.32,118-68.3,136.51c-19.49,19-41.14,36.8-54.13,61.45-15.48,29.48-8,53.46,3,82.27A153,153,0,0,0-69,347.84C-28.67,378,27.29,386,74.58,368.32c37.14-13.82,67.11-41.46,98.42-65.78S240.11,256.08,279.41,255.92Z"/><rect id="Rectangle_1" data-name="Rectangle 1" class="cls-8" x="201.5" y="263.57" width="97.75" height="97.75" transform="translate(-145.4 373.05) rotate(-60)"/><g id="Group_15" data-name="Group 15"><line id="Line_7" data-name="Line 7" class="cls-4" x1="352.02" y1="212.29" x2="372.34" y2="212.29"/><line id="Line_8" data-name="Line 8" class="cls-4" x1="362.18" y1="202.13" x2="362.18" y2="222.44"/></g></g></g></svg>