<svg xmlns="http://www.w3.org/2000/svg" viewBox="0 0 603 632.37"><defs><style>.cls-1{fill:#6269b1;}.cls-2,.cls-3{fill:none;stroke:#282b49;stroke-linecap:round;stroke-linejoin:round;}.cls-2{stroke-width:2.23px;}.cls-3{stroke-width:2.23px;}</style></defs><title>shape-purple-top-left</title><g id="Layer_2" data-name="Layer 2"><g id="Group_30" data-name="Group 30"><path id="Path_23" data-name="Path 23" class="cls-1" d="M410.64,508h.83c34.81.16,66.78,17.32,98.92,30.14,13.16,5.16,27.65,9.66,41,5.5,10.33-3.33,18.32-11.33,25-20a130.25,130.25,0,0,0-24.66-182.55q-2.68-2.06-5.48-4c-13.66-9.33-30.31-17.49-35.8-33.14-4.67-13.32.5-28.31,7.66-40.47,17.32-29.31,46.13-51.46,59.28-82.93C589,152.75,586.17,119.28,570,93.8s-44.8-42.47-74.94-44.13c-27.81-1.5-54.63,9.32-79.77,21.14S365,96,337.54,100.12s-58.62-2.66-75.61-24.64c-13.82-18.16-16.49-43.47-32.31-60C212-2.63,181.83-4,159,6.86,136,17.69,119.21,38,105.39,59.32c-15,23.15-27.48,49-28.64,76.44-1.84,44.3,25.81,83.6,43.8,124.23,5.83,13.16,10.82,27.64,7.49,41.47-2.33,9.82-8.66,18.31-15,26.31-16.15,20.81-31.14,42.3-50.12,60.78-19.49,19-41.14,36.8-54.13,61.45-15.48,29.48-8,53.46,3,82.27a153,153,0,0,0,50.46,67.61C102.56,630,158.52,638,205.81,620.36c37.14-13.82,67.11-41.46,98.42-65.78S371.34,508.12,410.64,508Z"/><rect id="Rectangle_1" data-name="Rectangle 1" class="cls-2" x="332.73" y="515.61" width="97.75" height="97.75" transform="translate(-298.06 612.71) rotate(-60)"/><g id="Group_15" data-name="Group 15"><line id="Line_7" data-name="Line 7" class="cls-3" x1="483.25" y1="464.32" x2="503.57" y2="464.32"/><line id="Line_8" data-name="Line 8" class="cls-3" x1="493.41" y1="454.17" x2="493.41" y2="474.48"/></g></g></g></svg>