<?xml version="1.0" encoding="utf-8"?>
<!-- Generator: Adobe Illustrator 24.0.3, SVG Export Plug-In . SVG Version: 6.00 Build 0)  -->
<svg version="1.1" id="Capa_1" xmlns="http://www.w3.org/2000/svg" xmlns:xlink="http://www.w3.org/1999/xlink" x="0px" y="0px"
	 viewBox="0 0 612 612" style="enable-background:new 0 0 612 612;" xml:space="preserve">
<style type="text/css">
	.st0{fill:#FEF9E2;}
</style>
<title>Artboard 1</title>
<path class="st0" d="M612,116.3c-22.9,10.1-47.2,16.8-72.1,19.7c26.2-15.7,45.8-40.3,55.2-69.4c-24.7,14.6-51.7,24.9-79.8,30.5
	c-47.5-50.6-127-53-177.6-5.5c-32.6,30.7-46.5,76.3-36.3,119.9c-100.9-5.1-195-52.7-258.8-131.2C9.3,137.8,26.3,211.1,81.5,248
	c-19.9-0.7-39.4-6.1-56.9-15.8v1.6c0,59.8,42.1,111.2,100.7,123.1c-10.8,2.9-21.9,4.4-33.1,4.4c-7.9,0-15.8-0.8-23.6-2.3
	c16.4,51.1,63.5,86.2,117.2,87.2c-44.5,34.9-99.4,53.7-155.9,53.6c-10,0-20-0.6-29.9-1.7c57.4,36.9,124.2,56.6,192.4,56.5
	c231,0,357.2-191.3,357.2-357.2l-0.4-16.2C573.9,163.5,595.2,141.5,612,116.3z"/>
</svg>
