<?xml version="1.0" encoding="utf-8"?>
<!-- Generator: Adobe Illustrator 24.0.3, SVG Export Plug-In . SVG Version: 6.00 Build 0)  -->
<svg version="1.1" id="Layer_1" xmlns="http://www.w3.org/2000/svg" xmlns:xlink="http://www.w3.org/1999/xlink" x="0px" y="0px"
	 viewBox="0 0 169.1 169.1" style="enable-background:new 0 0 169.1 169.1;" xml:space="preserve">
<style type="text/css">
	.st0{fill:#282B49;}
</style>
<title>Artboard 1</title>
<path class="st0" d="M122.4,0H46.7C20.9,0,0,20.9,0,46.7v75.8c0,25.8,20.9,46.6,46.7,46.6h75.8c25.8,0,46.6-20.9,46.6-46.7V46.7
	C169,20.9,148.2,0,122.4,0z M154.1,122.4c0,17.5-14.2,31.6-31.7,31.6H46.7C29.2,154,15,139.9,15,122.4V46.7C15,29.2,29.2,15,46.7,15
	h75.8c17.5,0,31.6,14.2,31.6,31.7V122.4z"/>
<path class="st0" d="M84.5,41C60.5,41,41,60.5,41,84.6s19.5,43.6,43.6,43.6s43.6-19.5,43.6-43.6c0,0,0,0,0,0
	C128.1,60.5,108.6,41,84.5,41z M84.5,113.1c-15.8,0-28.6-12.8-28.6-28.6S68.8,56,84.5,56s28.6,12.8,28.6,28.6c0,0,0,0,0,0
	C113.1,100.3,100.3,113.1,84.5,113.1L84.5,113.1z"/>
<path class="st0" d="M129.9,28.2c-6.1,0-11,4.9-11,11c0,6.1,4.9,11,11,11c6.1,0,11-4.9,11-11c0-2.9-1.2-5.7-3.2-7.8
	C135.6,29.4,132.8,28.2,129.9,28.2z"/>
</svg>
