<svg xmlns="http://www.w3.org/2000/svg" viewBox="0 0 853.8 502.76"><defs><style>.cls-1{fill:#282b49;opacity:0.1;isolation:isolate;}</style></defs><title>shape-text-blob1</title><g id="Layer_2" data-name="Layer 2"><path id="Path_51" data-name="Path 51" class="cls-1" d="M149.85,40.31c34.52,10.51,67.68,30,102.73,37.28C332.24,94,405.13,50,477.81,22.43,520.7,6.16,566.54-2.36,611.94.57c48.3,3.14,106.58,8.58,124.72,75.87,6.69,24.89,13.87,53.28,29.1,73.1,17,22.07,41.29,32.63,58.77,54.22,16.62,20.55,26.18,49.1,28.65,78.23,5,59-19.83,122.09-67.76,135.9-19.9,5.7-40.84,4.34-61.36,3-82.33-5.33-165.56-7.84-247.19,9.41C429.63,440.27,385,462.75,338,474.78A938.5,938.5,0,0,1,183.39,501c-34.07,2.87-68.91,3.71-101.58-8.84-38.95-15-79-57.1-81.67-112.26-1.35-28,7.43-55,14.69-81.42,15.27-55.8,24.42-114.15,28.89-173,1.85-24.1,3.53-50.25,16.25-68.24,16.58-23.42,45.89-26,68.91-22A173.52,173.52,0,0,1,149.85,40.31Z"/></g></svg>