<svg xmlns="http://www.w3.org/2000/svg" viewBox="0 0 578.05 530.35"><defs><style>.cls-1{fill:#f2d525;}.cls-2{fill:none;stroke:#282b49;stroke-linecap:round;stroke-linejoin:round;stroke-width:2.23px;}</style></defs><title>shape-yellow-bottom-left</title><g id="Layer_2" data-name="Layer 2"><g id="Group_26" data-name="Group 26"><path id="Path_22" data-name="Path 22" class="cls-1" d="M229.79,416.61c.13.13.25.38.38.51,17,22.37,21.6,51.25,29.27,78.22,3.06,10.86,7.28,22.49,16.61,28.88,7.16,5,16.23,6.13,25.05,6.13A105.29,105.29,0,0,0,406,424.7c0-1.72-.05-3.43-.14-5.15-.77-13.42-3.71-28,3.58-39.23,6.26-9.59,18.4-13.55,29.78-14.95,27.35-3.33,55.59,4.34,82.17-2.69,23.52-6.26,43.58-24.41,52-47.16s5.11-49.58-8.57-69.78c-12.65-18.53-32.71-30.41-52.78-40.77s-40.77-19.93-57-35.4S428,130.72,433.76,109c4.73-17.77,19.81-31.83,22.49-50.1,2.94-20.2-11-40.13-29.14-49.59S387.62-.91,367.17.62c-22.11,1.79-44.85,6.39-63,19.17-29.27,20.7-40.9,57.51-58,89.08-5.5,10.22-12.4,20.44-22.88,25.17-7.54,3.33-16,3.45-24.15,3.33-21.35-.13-42.43.76-63.52-2.18-21.73-3.2-43.84-8.3-65.95-4.47-26.58,4.6-38.08,21.09-51.12,42.3A123.38,123.38,0,0,0,0,238.46C.51,279.1,22.88,319,57.26,340.57c27.09,17,59.55,22.62,90.48,30.67S210.36,391.43,229.79,416.61Z"/><path id="Path_25" data-name="Path 25" class="cls-2" d="M474.78,124.58l5.5,41.8-39-16.1-39-16.1,33.49-25.56,33.35-25.7Z"/><g id="Group_14" data-name="Group 14"><line id="Line_3" data-name="Line 3" class="cls-2" x1="366.41" y1="53.4" x2="382" y2="53.4"/><line id="Line_4" data-name="Line 4" class="cls-2" x1="374.2" y1="45.6" x2="374.2" y2="61.2"/></g></g></g></svg>