<svg xmlns="http://www.w3.org/2000/svg" viewBox="0 0 685.36 670.55"><defs><style>.cls-1{fill:#ee70aa;}.cls-2{fill:none;stroke:#282b49;stroke-linecap:round;stroke-linejoin:round;stroke-width:2.23px;}</style></defs><title>shape-pink-bottom-right</title><g id="Layer_2" data-name="Layer 2"><g id="Group_28" data-name="Group 28"><path id="Path_21" data-name="Path 21" class="cls-1" d="M602.94,293.9c.16-.16.16-.49.33-.66,12.33-32.05,39.45-55.4,62.63-80.72,9.37-10.19,18.58-22,19.4-35.83.66-10.69-4.11-20.88-9.7-29.92a128.57,128.57,0,0,0-177.08-41.31q-2.83,1.76-5.56,3.66c-13.48,9.37-26.8,21.86-43.24,21.53-14-.32-26-10.35-34.69-21.37C394,83,383.8,48.62,359.3,25.44,337.77,5.06,305.87-4.15,276.78,1.77S221.87,28.4,209.87,55.53c-11.18,25.15-10.69,53.75-8.55,81s5.59,55.24-.17,82-23,53.26-49.31,61.15c-21.54,6.41-45.87-.16-66.58,8.72-23,9.86-34.69,37.15-32.88,62.14s14.8,47.67,29.59,67.9c16.11,21.86,35.51,42.58,60.5,53.26,40.27,17.1,86.14,5.59,129.87,3.13,14.14-.83,29.26-.33,40.94,7.56,8.38,5.59,13.8,14.47,19.07,23,13.48,22.2,28.11,43.57,38.63,67.57,10.68,24.66,19.56,51,37.65,71.51,21.86,24.66,46.52,26.14,76.93,26a150,150,0,0,0,80.06-22.85c42.09-26.63,69-75.46,69.38-125.27.16-39.13-14.8-76.45-26.3-113.93S589.29,330.23,602.94,293.9Z"/><path id="Path_24" data-name="Path 24" class="cls-2" d="M235.84,198.39l-55.07-38.14L120.11,189l-5.43,66.74,55.24,38.14,60.5-28.77Z"/><g id="Group_27" data-name="Group 27"><line id="Line_1-2" data-name="Line 1-2" class="cls-2" x1="1.12" y1="304" x2="21.71" y2="304"/><line id="Line_2-2" data-name="Line 2-2" class="cls-2" x1="11.41" y1="293.71" x2="11.41" y2="314.3"/></g></g></g></svg>