<svg xmlns="http://www.w3.org/2000/svg" viewBox="0 0 900 360"><defs><style>.cls-1{fill:#282b49;}</style></defs><title>somos-logo-2</title><g id="Layer_2" data-name="Layer 2"><path class="cls-1" d="M256,302a14,14,0,0,1,9.67,3.9l-1.61,3.34a11.08,11.08,0,0,0-8.22-3.7c-5.66,0-10,4.13-10,10.23s4.33,10.22,10,10.22a11.55,11.55,0,0,0,5.07-1.14l.63,3.54a16.24,16.24,0,0,1-5.7,1.14A13.77,13.77,0,0,1,256,302Z"/><path class="cls-1" d="M298.53,302a13.77,13.77,0,1,1-13.76,13.77A13.41,13.41,0,0,1,298.53,302Zm0,3.54a10.23,10.23,0,1,0,10.23,10.23A9.92,9.92,0,0,0,298.53,305.53Z"/><path class="cls-1" d="M358.18,302v27.53h-3.54l-17.57-21.83v21.83h-3.54V302h3.54l17.57,21.87V302Z"/><path class="cls-1" d="M397.5,302v3.54H384.13V314H397.5v3.54H384.13v12h-3.54V302Z"/><path class="cls-1" d="M435.64,302v3.54H422.27V314h13.37v3.54H422.27V326h13.37v3.54H418.73V302Z"/><path class="cls-1" d="M457.46,329.52V302h10.39c5.23,0,8.76,3.62,8.76,8.5a8.11,8.11,0,0,1-6.64,8.25l7.47,10.78h-4.52L465.84,319H461v10.54Zm10.39-24H461v9.91h6.85c3.18,0,5.23-2.08,5.23-4.95S471,305.53,467.85,305.53Z"/><path class="cls-1" d="M515.19,302v3.54H501.82V314h13.37v3.54H501.82V326h13.37v3.54H498.28V302Z"/><path class="cls-1" d="M561.27,302v27.53h-3.54l-17.57-21.83v21.83h-3.54V302h3.54l17.57,21.87V302Z"/><path class="cls-1" d="M596.19,302a14,14,0,0,1,9.67,3.9l-1.61,3.34a11.08,11.08,0,0,0-8.22-3.7c-5.66,0-10,4.13-10,10.23S590.37,326,596,326a11.52,11.52,0,0,0,5.07-1.14l.63,3.54a16.24,16.24,0,0,1-5.7,1.14,13.77,13.77,0,0,1,.16-27.53Z"/><path class="cls-1" d="M643,302v3.54H629.65V314H643v3.54H629.65V326H643v3.54H626.11V302Z"/><path class="cls-1" d="M202.1,154.38S228.44,89,161.16,89c-35.09,0-47.84,30.74-47.84,49.35,0,45.65,32.15,61.22,32.15,94.6,0,21.74-6,26.16-9.6,26.16-8.94,0-3.19-42.18-4.44-47.61s-24.31-15.81-35.12-6.77c-5.94,7.34-20.56,66.46,37.29,66.46,48.45,0,50.46-40.79,50.46-54.49,0-36.6-32-60.09-32-86.8,0-22.25,4.94-28.75,9.61-28.75,9.63,0,2.54,42.2,4.38,47.38S188.26,165.87,202.1,154.38Z"/><path class="cls-1" d="M287.23,92.36c-91.09,0-106.38,175.43-40.62,175.43C331.94,267.79,357.55,92.36,287.23,92.36ZM253.08,254.84c-20,0,14-149.53,30.69-149.53C291.09,105.31,265.85,254.84,253.08,254.84Z"/><path class="cls-1" d="M406.6,148.66c-1.91,0,14.16-59.08-20.93-59.08-26.11,0-47.42,22.86-48.51,29.17.69,5.9,7,8.58,9.6,6.94s15.28-18.63,22.3-18.63c3.08,0-32,80-25.93,157.52,10.18,5.68,25.25-.14,31.86-7s45.94-85.08,48.59-85.08c4.36,0-18.23,67.64-16.52,78.46s25.7,27.88,44.18,15,39.95-54.9,42-54.9c1,0-14.19,59.52,20.91,59.52,26.1,0,47.41-22.86,48.51-29.17-.7-5.9-7-8.58-9.61-6.94s-15.28,18.63-22.3,18.63c-3.08,0,32-80,25.93-157.52-10.18-5.68-25.25.14-31.86,7s-45.94,85.07-48.59,85.07c-4.36,0,18.23-67.63,16.52-78.46s-25.7-27.87-44.18-15S407.43,148.66,406.6,148.66Z"/><path class="cls-1" d="M73.94,110.71c-7.31,6.38-48.63,151.54-47.63,163.41s20.57,19.65,30.67,9,38.32-158,36.8-165.64S79.42,105.92,73.94,110.71Z"/><path class="cls-1" d="M77.5,96.4c1.49,8.28,10.89,11.11,19.43,9.3s12.87-32,1.64-33.54S74.73,81.05,77.5,96.4Z"/><path class="cls-1" d="M697.9,205.77s-26.34,65.4,40.94,65.4c35.09,0,47.84-30.74,47.84-49.35,0-45.65-32.15-61.22-32.15-94.6,0-21.74,6-26.16,9.6-26.16,8.94,0,3.19,42.18,4.44,47.61s24.31,15.81,35.12,6.77C809.63,148.1,824.25,89,766.4,89c-48.45,0-50.46,40.79-50.46,54.49,0,36.61,32,60.09,32,86.8C748,252.52,743,259,738.37,259c-9.63,0-2.54-42.2-4.38-47.38S711.74,194.28,697.9,205.77Z"/><path class="cls-1" d="M653.39,92.36c-85.33,0-110.94,175.43-40.62,175.43C703.86,267.79,719.15,92.36,653.39,92.36ZM616.23,254.84c-7.32,0,17.92-149.53,30.69-149.53C666.89,105.31,632.94,254.84,616.23,254.84Z"/><path class="cls-1" d="M826.06,249.45c7.31-6.39,48.63-151.54,47.63-163.42s-20.57-19.65-30.67-9S804.7,235,806.22,242.7,820.58,254.23,826.06,249.45Z"/><path class="cls-1" d="M822.5,263.75c-1.49-8.28-10.89-11.11-19.43-9.29s-12.87,32-1.64,33.53S825.27,279.11,822.5,263.75Z"/><path class="cls-1" d="M663.3,57.28a13.61,13.61,0,0,1-9.42-3.79l1.57-3.25a10.8,10.8,0,0,0,8,3.59c5.52,0,9.73-4,9.73-9.95s-4.21-10-9.73-10A11.17,11.17,0,0,0,658.52,35l-.62-3.45a15.84,15.84,0,0,1,5.55-1.11,13.14,13.14,0,0,1,13.17,13.4A13.13,13.13,0,0,1,663.3,57.28Z"/><path class="cls-1" d="M621.92,57.28a13.06,13.06,0,0,1-13.4-13.4,13.4,13.4,0,0,1,26.8,0A13.08,13.08,0,0,1,621.92,57.28Zm0-3.45a9.66,9.66,0,0,0,10-9.95,10,10,0,0,0-19.91,0A9.65,9.65,0,0,0,621.92,53.83Z"/><path class="cls-1" d="M562.7,57.28V30.48h3.45l17.11,21.25V30.48h3.45v26.8h-3.45L566.15,36V57.28Z"/><path class="cls-1" d="M522.89,57.28V53.83h13V45.6h-13V42.16h13V30.48h3.44v26.8Z"/><path class="cls-1" d="M484.23,57.28V53.83h13V45.6h-13V42.16h13V33.93h-13V30.48h16.46v26.8Z"/><path class="cls-1" d="M461.46,30.48v26.8H451.35c-5.09,0-8.54-3.52-8.54-8.27a7.91,7.91,0,0,1,6.47-8L442,30.48h4.4l6.89,10.26H458V30.48ZM451.35,53.83H458V44.19h-6.66c-3.1,0-5.09,2-5.09,4.82S448.25,53.83,451.35,53.83Z"/><path class="cls-1" d="M403.73,57.28V53.83h13V45.6h-13V42.16h13V33.93h-13V30.48h16.46v26.8Z"/><path class="cls-1" d="M357.33,57.28V30.48h3.45l17.11,21.25V30.48h3.45v26.8h-3.45L360.78,36V57.28Z"/><path class="cls-1" d="M322.19,57.28a13.61,13.61,0,0,1-9.42-3.79l1.57-3.25a10.81,10.81,0,0,0,8,3.59c5.51,0,9.72-4,9.72-9.95s-4.21-10-9.72-10A11.21,11.21,0,0,0,317.41,35l-.61-3.45a15.8,15.8,0,0,1,5.55-1.11,13.15,13.15,0,0,1,13.17,13.4A13.14,13.14,0,0,1,322.19,57.28Z"/><path class="cls-1" d="M288.47,57.28V30.48h3.45v26.8Z"/><path class="cls-1" d="M244.83,35.19h16.61l2.19-4.71h3.79l-12.48,26.8h-3.6l-12.48-26.8h3.79Zm15,3.45h-13.4l6.7,14.47Z"/></g></svg>