<?xml version="1.0" encoding="utf-8"?>
<!-- Generator: Adobe Illustrator 24.0.3, SVG Export Plug-In . SVG Version: 6.00 Build 0)  -->
<svg version="1.1" id="Layer_1" xmlns="http://www.w3.org/2000/svg" xmlns:xlink="http://www.w3.org/1999/xlink" x="0px" y="0px"
	 viewBox="0 0 900 300" style="enable-background:new 0 0 900 300;" xml:space="preserve">
<style type="text/css">
	.st0{fill:#89D3DD;}
	.st1{fill:#FEF9E2;}
</style>
<path class="st0" d="M893.6,54.3c-1.1-13.3-10.9-25.1-24.8-30c-14.7-5.2-30.1-1.8-40.3,8.9c-2.6,2.7-5.9,6.2-11.8,26.2
	c-14.5-17.4-36.9-20.4-50.3-20.4c-30.4,0-52.4,13.2-63.1,36.7c-0.7-1.4-1.4-2.8-2.2-4.1c-10.8-18.9-27.7-29.3-47.7-29.3
	c-30.1,0-57,16.5-76.1,46.5c0.1-8.6-0.1-16.9-0.7-24.9l-0.8-10.7l-9.3-5.2c-18.6-10.4-43.1-2.8-56,10.5c-1,1-2.1,2.4-3.4,4.2
	c-5.2-7.8-13.5-14.7-23.6-19c-16.1-6.9-33-5.4-46.4,3.9c-4.7,3.3-9.7,7.8-14.9,13.7c-1.6-3.2-3.5-6-5.8-8.6
	c-7.6-8.7-18.3-13.3-30.8-13.3c-22.4,0-42.4,11.8-54.8,24.1c-10.7-13.8-25.9-21.3-43.5-21.3c-24.9,0-47.4,10.4-65,29.6
	c-1.5-3.3-3.3-6.4-5.4-9.3c-11.3-15.7-30-23.6-55.6-23.6c-15.4,0-27.3,4.3-36.3,10c-2.3-17.6-13.8-25.4-23.6-26.6
	c-12-1.7-24.3,2.7-33,11.7C59.4,43.3,55.6,56,57.7,69c-4.4,6-11.5,22.3-29.8,85.8c-14.9,51.8-22.1,82.4-21.4,91
	c1.1,13.3,10.9,25.1,24.8,30c4.5,1.6,9,2.4,13.6,2.4c10.3,0,19.8-4,26.7-11.3c2.6-2.7,5.9-6.2,11.7-26.2
	c14.5,17.6,37,20.6,50.4,20.6c30.3,0,52.3-13.2,63-36.5c0.7,1.3,1.3,2.6,2,3.8c10.8,18.9,27.7,29.3,47.7,29.3
	c29.8,0,56.7-16.3,75.7-45.9c-0.1,8.3,0.1,16.4,0.7,24.2l0.8,10.7l9.3,5.2c18.6,10.4,43.1,2.8,56-10.5c1-1,2.1-2.4,3.3-4.1
	c5.1,7.8,13.5,14.7,23.5,19c6.6,2.8,13.5,4.3,20.3,4.3c9.5,0,18.6-2.8,26.3-8.2c4.7-3.3,9.6-7.8,14.7-13.7c1.6,3,3.4,5.7,5.5,8.2
	c7.7,9,18.5,13.8,31.3,13.8c22.3,0,42.6-12,55-24.3c10.7,13.9,26,21.5,43.8,21.5c24.9,0,47.4-10.3,65-29.5c1.3,2.9,2.8,5.6,4.5,8.1
	c11.1,16.5,30.1,24.8,56.5,24.8c15.4,0,27.3-4.3,36.4-10.1c2.8,22.7,20.1,26.1,23.8,26.6c1.6,0.2,3.2,0.3,4.8,0.3
	c10.4,0,20.7-4.5,28.1-12.2c8.8-9.2,12.6-21.8,10.6-34.9c4.5-6.2,11.7-22.8,29.8-85.7C887.1,93.6,894.4,62.9,893.6,54.3z"/>
<g id="somos">
	<title>¡somos! conference</title>
	<g>
		<path class="st1" d="M161.2,59c-35.1,0-47.8,30.7-47.8,49.3c0,45.7,32.2,61.2,32.2,94.6c0,21.7-6,26.2-9.6,26.2
			c-8.9,0-3.2-42.2-4.4-47.6s-24.3-15.8-35.1-6.8c-5.9,7.3-20.6,66.5,37.3,66.5c48.4,0,50.5-40.8,50.5-54.5c0-36.6-32-60.1-32-86.8
			c0-22.2,4.9-28.8,9.6-28.8c9.6,0,2.5,42.2,4.4,47.4c1.8,5.2,22.2,17.3,36.1,5.9C202.1,124.4,228.4,59,161.2,59z"/>
		<path class="st1" d="M287.2,62.4c-91.1,0-106.4,175.4-40.6,175.4C331.9,237.8,357.5,62.4,287.2,62.4z M253.1,224.8
			c-20,0,14-149.5,30.7-149.5C291.1,75.3,265.9,224.8,253.1,224.8z"/>
		<path class="st1" d="M553,204.5c-2.6,1.6-15.3,18.6-22.3,18.6c-3.1,0,32-80,25.9-157.5c-10.2-5.7-25.2,0.1-31.9,7
			s-45.9,85.1-48.6,85.1c-4.4,0,18.2-67.6,16.5-78.5c-1.7-10.8-25.7-27.9-44.2-15s-41.1,54.5-42,54.5c-1.9,0,14.2-59.1-20.9-59.1
			c-26.1,0-47.4,22.9-48.5,29.2c0.7,5.9,7,8.6,9.6,6.9c2.6-1.6,15.3-18.6,22.3-18.6c3.1,0-32,80-25.9,157.5
			c10.2,5.7,25.2-0.1,31.9-7s45.9-85.1,48.6-85.1c4.4,0-18.2,67.6-16.5,78.5s25.7,27.9,44.2,15s40-54.9,42-54.9
			c1,0-14.2,59.5,20.9,59.5c26.1,0,47.4-22.9,48.5-29.2C562,205.5,555.7,202.8,553,204.5z"/>
		<path class="st1" d="M93.8,87.5c-1.5-7.6-14.4-11.6-19.8-6.8c-7.3,6.4-48.6,151.5-47.6,163.4s20.6,19.6,30.7,9
			C67.1,242.5,95.3,95.1,93.8,87.5z"/>
		<path class="st1" d="M96.9,75.7c8.5-1.8,12.9-32,1.6-33.5c-11.2-1.6-23.8,8.8-21,24.2C79,74.7,88.4,77.5,96.9,75.7z"/>
		<path class="st1" d="M768.6,118.7c1.2,5.4,24.3,15.8,35.1,6.8c5.9-7.3,20.6-66.4-37.3-66.4c-48.5,0-50.5,40.8-50.5,54.5
			c0,36.6,32,60.1,32,86.8c0.1,22.2-4.9,28.7-9.6,28.7c-9.6,0-2.5-42.2-4.4-47.4s-22.2-17.3-36.1-5.8c0,0-26.3,65.4,40.9,65.4
			c35.1,0,47.8-30.7,47.8-49.3c0-45.7-32.2-61.2-32.2-94.6c0-21.7,6-26.2,9.6-26.2C773.1,71.1,767.3,113.2,768.6,118.7z"/>
		<path class="st1" d="M653.4,62.4c-85.3,0-110.9,175.4-40.6,175.4C703.9,237.8,719.2,62.4,653.4,62.4z M616.2,224.8
			c-7.3,0,17.9-149.5,30.7-149.5C666.9,75.3,632.9,224.8,616.2,224.8z"/>
		<path class="st1" d="M873.7,56c-1-11.9-20.6-19.6-30.7-9c-10.1,10.7-38.3,158-36.8,165.7s14.4,11.5,19.8,6.8
			C833.4,213.1,874.7,67.9,873.7,56z"/>
		<path class="st1" d="M803.1,224.5c-8.5,1.8-12.9,32-1.6,33.5s23.8-8.9,21.1-24.2C821,225.5,811.6,222.6,803.1,224.5z"/>
	</g>
</g>
<title>¡somos! conference</title>
</svg>
