<svg xmlns="http://www.w3.org/2000/svg" viewBox="0 0 799.8 243.15"><defs><style>.cls-1{fill:#282b49;}</style></defs><title>somos-logo-1</title><g id="Layer_2" data-name="Layer 2"><g id="Group_11" data-name="Group 11"><g id="Group_10" data-name="Group 10"><g id="Group_9" data-name="Group 9"><g id="Group_1" data-name="Group 1"><path id="Path_1" data-name="Path 1" class="cls-1" d="M216.88,217a13.18,13.18,0,0,1,9.11,3.61l-1.55,3.09a10.83,10.83,0,0,0-7.73-3.43,9.62,9.62,0,0,0,0,19.24,13.25,13.25,0,0,0,4.81-1l.52,3.27a16.22,16.22,0,0,1-5.33,1A12.77,12.77,0,0,1,204,230v-.25C203.82,222.71,209.49,217,216.88,217Z"/><path id="Path_2" data-name="Path 2" class="cls-1" d="M256.92,217a13.06,13.06,0,1,1-13.06,13.06h0A12.74,12.74,0,0,1,256.27,217Zm0,3.27a9.63,9.63,0,1,0,9.63,9.62,9.4,9.4,0,0,0-9.18-9.62Z"/><path id="Path_3" data-name="Path 3" class="cls-1" d="M313.12,217V243h-3.27l-16.67-20.62V243h-3.26V217h3.26l16.67,20.63V217Z"/><path id="Path_4" data-name="Path 4" class="cls-1" d="M350.23,217v3.27H337.69v7.9h12.54v3.26H337.69v11.35h-3.27V216.86h15.81Z"/><path id="Path_5" data-name="Path 5" class="cls-1" d="M386.32,217v3.27H373.78v7.9h12.54v3.26H373.78v7.9h12.54v3.27h-16V216.69h16Z"/><path id="Path_6" data-name="Path 6" class="cls-1" d="M406.94,243V217h9.8c5,0,8.25,3.44,8.25,8.08a7.48,7.48,0,0,1-6.18,7.73l7,10.14h-4.3l-6.7-10h-4.64v10Zm9.8-22.68h-6.53v9.28h6.53c2.92,0,5-1.89,5-4.64a4.82,4.82,0,0,0-5-4.64Z"/><path id="Path_7" data-name="Path 7" class="cls-1" d="M461.42,217v3.27H448.87v7.9h12.55v3.26H448.87v7.9h12.55v3.27h-16V216.69h16Z"/><path id="Path_8" data-name="Path 8" class="cls-1" d="M504.9,217V243h-3.27L485,222.36V243H481.7V217H485l16.67,20.63V217Z"/><path id="Path_9" data-name="Path 9" class="cls-1" d="M537.72,217a13.18,13.18,0,0,1,9.11,3.61l-1.55,3.09a10.87,10.87,0,0,0-7.73-3.43,9.62,9.62,0,0,0,0,19.24,13.3,13.3,0,0,0,4.81-1l.51,3.27a16.11,16.11,0,0,1-5.32,1,12.89,12.89,0,0,1,.17-25.78Z"/><path id="Path_10" data-name="Path 10" class="cls-1" d="M582.05,217v3.27H569.51v7.9h12.54v3.26H569.51v7.9h12.54v3.27h-16V216.69h16Z"/></g><g id="Group_2" data-name="Group 2"><path id="Path_11" data-name="Path 11" class="cls-1" d="M165.84,77.67S190.76,16,127.18,16C94,16,82,45,82,62.54c0,43.14,30.42,57.74,30.42,89.36,0,20.45-5.67,24.75-9.11,24.75-8.42,0-2.92-39.87-4.12-44.85-1.2-5.16-22.86-15-33.17-6.36-5.67,6.87-19.42,62.72,35.23,62.72,45.71,0,47.6-38.49,47.6-51.38,0-34.54-30.25-56.71-30.25-82,0-21.13,4.82-27.32,9.11-27.32,9.11,0,2.41,39.87,4.13,44.68S152.78,88.49,165.84,77.67Z"/></g><path id="Path_12" data-name="Path 12" class="cls-1" d="M246.27,19.24c-85.92,0-100.36,165.49-38.32,165.49C288.37,184.73,312.6,19.24,246.27,19.24ZM214,172.53c-18.9,0,13.23-141.09,28.87-141.09C249.88,31.44,226,172.53,214,172.53Z"/><g id="Group_3" data-name="Group 3"><path id="Path_13" data-name="Path 13" class="cls-1" d="M358.83,72.34c-1.89,0,13.4-55.68-19.77-55.68-24.57,0-44.68,21.66-45.71,27.5.69,5.5,6.53,8.08,9.11,6.53,2.41-1.54,14.44-17.53,21-17.53,2.92,0-30.25,75.44-24.4,148.65,9.62,5.33,23.88-.17,30.07-6.53C335.29,168.75,372.4,95,375,95c4.13,0-17.18,63.75-15.64,74.06,1.55,10.14,24.23,26.3,41.76,14.09s37.64-51.72,39.53-51.72c.86,0-13.4,56.19,19.76,56.19,24.57,0,44.68-21.65,45.71-27.5-.69-5.5-6.53-8.07-9.11-6.53-2.4,1.55-14.43,17.53-21,17.53-2.92,0,30.24-75.44,24.4-148.64-9.63-5.33-23.89.17-30.08,6.53s-43.3,80.25-45.88,80.25c-4.12,0,17.19-63.76,15.64-74.07-1.55-10.14-24.23-26.29-41.76-14.09S359.69,72.34,358.83,72.34Z"/></g><g id="Group_5" data-name="Group 5"><g id="Group_4" data-name="Group 4"><path id="Path_14" data-name="Path 14" class="cls-1" d="M45,36.6c-6.88,6-45.89,143-45,154.14s19.42,18.56,28.87,8.42S65,50.17,63.6,42.78C62.22,35.57,50.19,32,45,36.6Z"/><path id="Path_15" data-name="Path 15" class="cls-1" d="M48.3,23c1.38,7.73,10.31,10.48,18.39,8.76S78.89,1.54,68.24.17,45.72,8.59,48.3,23Z"/></g></g><g id="Group_6" data-name="Group 6"><path id="Path_16" data-name="Path 16" class="cls-1" d="M633.78,126.3S608.86,188,672.44,188c33.17,0,45.2-29.05,45.2-46.57,0-43.14-30.41-57.74-30.41-89.36,0-20.45,5.67-24.75,9.1-24.75,8.43,0,2.93,39.87,4.13,44.85,1.2,5.16,22.85,15,33.17,6.36C739.29,71.65,753,15.8,698.39,15.8c-45.71,0-47.6,38.5-47.6,51.38,0,34.55,30.25,56.71,30.25,82,0,21-4.64,27.16-9.11,27.16-9.11,0-2.41-39.87-4.12-44.68S646.84,115.3,633.78,126.3Z"/></g><path id="Path_17" data-name="Path 17" class="cls-1" d="M591.85,19.24c-80.6,0-104.65,165.49-38.32,165.49C639.45,184.73,653.88,19.24,591.85,19.24ZM556.62,172.53c-6.87,0,16.84-141.09,28.87-141.09C604.57,31.44,572.43,172.53,556.62,172.53Z"/><g id="Group_8" data-name="Group 8"><g id="Group_7" data-name="Group 7"><path id="Path_18" data-name="Path 18" class="cls-1" d="M754.76,167.37c6.87-6,45.88-143,45-154.14s-19.59-18.56-29-8.42S734.65,153.8,736,161.18C737.41,168.23,749.61,172,754.76,167.37Z"/><path id="Path_19" data-name="Path 19" class="cls-1" d="M751.32,181c-1.37-7.74-10.31-10.49-18.38-8.77s-12.21,30.25-1.55,31.62C742,205.35,753.9,195.38,751.32,181Z"/></g></g></g></g></g></g></svg>