<svg id="Layer_1" data-name="Layer 1" xmlns="http://www.w3.org/2000/svg" viewBox="0 0 368 368"><defs><style>.cls-1{fill:#282b49;}</style></defs><title>web-icon-blue</title><path class="cls-1" d="M304.61,53.05A177.74,177.74,0,0,0,76.51,42.3c-4.39,3.37-8.66,6.92-12.76,10.75A177.76,177.76,0,0,0,291.89,325.29c4.39-3.37,8.66-6.92,12.76-10.75A177.57,177.57,0,0,0,315.23,63.65q-5.07-5.51-10.58-10.58Zm-7.34,240.8a178.12,178.12,0,0,0-27.92-19,291,291,0,0,0,13.37-81.18h59A157.83,157.83,0,0,1,297.27,293.85Zm-16.1,14.62c-1.52,1.19-3.09,2.29-4.65,3.42-2.25,1.63-4.51,3.23-6.83,4.73-1.67,1.08-3.37,2.09-5.07,3.11-2.33,1.38-4.68,2.71-7.08,3.95q-2.64,1.4-5.34,2.68c-2.42,1.16-4.88,2.25-7.36,3.28-1.68.7-3.37,1.39-5.07,2a156.83,156.83,0,0,0,22.6-38.16,154.73,154.73,0,0,1,20.3,13.72C282.16,307.62,281.69,308.07,281.17,308.47Zm-165,17.9c-1.78-.85-3.54-1.74-5.29-2.65-2.42-1.28-4.8-2.63-7.15-4-1.67-1-3.34-2-4.94-3-2.35-1.53-4.64-3.16-6.91-4.81-1.55-1.11-3.1-2.2-4.6-3.37-.51-.4-1-.85-1.5-1.26A156.78,156.78,0,0,1,106,293.46a156.73,156.73,0,0,0,22.61,38.19c-1.69-.63-3.37-1.31-5-2q-3.75-1.57-7.43-3.31ZM71.13,73.74a177.66,177.66,0,0,0,27.92,19,291.4,291.4,0,0,0-13.38,81.19h-59A157.87,157.87,0,0,1,71.13,73.74ZM87.22,59.13c1.52-1.2,3.09-2.29,4.66-3.43,2.25-1.63,4.51-3.23,6.84-4.73,1.66-1.08,3.36-2.09,5-3.1,2.33-1.37,4.68-2.72,7.08-3.94,1.76-.93,3.55-1.82,5.35-2.68,2.42-1.17,4.88-2.26,7.36-3.29,1.68-.69,3.37-1.39,5.07-2A156.55,156.55,0,0,0,106,74.14a158.11,158.11,0,0,1-20.3-13.72C86.23,60,86.71,59.52,87.22,59.13Zm165-17.9q2.67,1.27,5.28,2.65c2.42,1.27,4.81,2.62,7.16,4,1.67,1,3.34,2,4.94,3,2.35,1.52,4.64,3.15,6.91,4.8,1.54,1.12,3.09,2.2,4.6,3.38.51.39,1,.85,1.5,1.25a157,157,0,0,1-20.23,13.76,156.63,156.63,0,0,0-22.6-38.2c1.69.63,3.37,1.32,5,2,2.5,1,5,2.14,7.43,3.31ZM174.32,94.47a157.32,157.32,0,0,1-50.39-11.63C136.51,53,154.37,32.4,174.32,27.17Zm0,19.76v59.69h-68.9a274.43,274.43,0,0,1,11.86-72.45,177,177,0,0,0,57,12.71Zm0,79.45v59.74a176.77,176.77,0,0,0-57.09,12.7,274.77,274.77,0,0,1-11.81-72.44Zm0,79.45v67.3c-19.92-5.24-37.78-25.88-50.39-55.68A157,157,0,0,1,174.32,273.13Zm19.76,0a157,157,0,0,1,50.38,11.62c-12.57,29.8-30.44,50.39-50.38,55.68Zm0-19.76V193.68H263a274.35,274.35,0,0,1-11.8,72.44,176.77,176.77,0,0,0-57.09-12.7Zm0-79.45V114.18a176.78,176.78,0,0,0,57.09-12.71A274.35,274.35,0,0,1,263,173.91H194.08Zm0-79.45V27.17C214,32.4,231.86,53,244.46,82.84A157.26,157.26,0,0,1,194.08,94.47ZM85.67,193.68a291.33,291.33,0,0,0,13.38,81.18,177.2,177.2,0,0,0-27.92,19A157.79,157.79,0,0,1,26.64,193.68Zm197.05-19.76a291,291,0,0,0-13.37-81.19,177.66,177.66,0,0,0,27.92-19,157.78,157.78,0,0,1,44.48,100.17h-59Z"/></svg>