<svg xmlns="http://www.w3.org/2000/svg" viewBox="0 0 456.74 149.82"><defs><style>.cls-1{fill:#e23594;}.cls-2{fill:#6269b1;}.cls-3{isolation:isolate;}.cls-4{fill:#282b49;}.cls-5{fill:none;}</style></defs><title>become-sponsor-1</title><g id="Layer_2" data-name="Layer 2"><g id="Group_75" data-name="Group 75"><path id="Path_111" data-name="Path 111" class="cls-1" d="M418.4,130.58l0,0c2.31,1.75,3.57,4.49,5.09,6.95A5.09,5.09,0,0,0,426,140a4.44,4.44,0,0,0,2.65-.09,10.82,10.82,0,0,0,7.45-13.38,4.68,4.68,0,0,0-.17-.53c-.44-1.31-1.14-2.68-.74-4a4.15,4.15,0,0,1,2.54-2.32c2.62-1.09,5.64-1.12,8.08-2.56a7.85,7.85,0,0,0,1-12.8,14.09,14.09,0,0,0-6.37-2.58,24.46,24.46,0,0,1-6.64-1.91c-2-1.09-3.77-3.1-3.8-5.42,0-1.89,1.08-3.71.84-5.59a5.27,5.27,0,0,0-4.27-4.11,11.37,11.37,0,0,0-6.18.82,13,13,0,0,0-5.72,3.67c-2.32,2.86-2.45,6.84-3.27,10.44a5.6,5.6,0,0,1-1.56,3.14,6,6,0,0,1-2.31,1,49.32,49.32,0,0,1-6.37,1.56c-2.24.29-4.58.4-6.66,1.39-2.51,1.19-3.2,3.16-3.89,5.62a12.6,12.6,0,0,0,0,7,12.8,12.8,0,0,0,8.53,8.52c3.16.92,6.53.58,9.84.52S415.77,128.63,418.4,130.58Z"/><path id="Path_110" data-name="Path 110" class="cls-2" d="M41.63,54.49h.08c2.94.3,5.5,2,8.11,3.37a5.4,5.4,0,0,0,3.42.8,4.56,4.56,0,0,0,2.27-1.48,11.06,11.06,0,0,0-.58-15.64l-.42-.38c-1.08-.9-2.42-1.73-2.76-3.09a4.25,4.25,0,0,1,1-3.36c1.7-2.34,4.32-4,5.69-6.52a8,8,0,0,0-5.87-11.75,14.39,14.39,0,0,0-6.91,1.13,24.54,24.54,0,0,1-6.82,1.83c-2.35.13-4.93-.71-6.19-2.71-1-1.65-1-3.81-2.24-5.34A5.33,5.33,0,0,0,24.51,10a11.56,11.56,0,0,0-5,4,13.28,13.28,0,0,0-3.06,6.23C16,24,18,27.54,19.16,31.12a5.73,5.73,0,0,1,.29,3.57A6,6,0,0,1,18,36.79a48,48,0,0,1-4.74,4.72c-1.8,1.45-3.78,2.78-5.08,4.75-1.56,2.37-1.12,4.45-.43,7A12.79,12.79,0,0,0,23.39,62.3c3.25-.87,6-3,8.86-4.75S38.31,54.17,41.63,54.49Z"/><g id="Group_74" data-name="Group 74"><g id="YOUR_LOGO_HERE" data-name="YOUR LOGO HERE" class="cls-3"><g class="cls-3"><path class="cls-4" d="M102.36,77.27v9H99V77.46L90.45,61.8h3.63l5.36,9.66a12.26,12.26,0,0,1,1.26,3.07h.07A10.71,10.71,0,0,1,102,71.46l5.33-9.66h3.48Z"/><path class="cls-4" d="M135.11,74c0,7.62-4.77,12.43-11.47,12.43S112.17,81.64,112.17,74,117,61.58,123.64,61.58,135.11,66.39,135.11,74Zm-3.4,0c0-5.81-3.33-9.48-8.07-9.48s-8.07,3.67-8.07,9.48,3.37,9.47,8.07,9.47S131.71,79.82,131.71,74Z"/><path class="cls-4" d="M159.6,61.8v15c0,5.81-3.92,9.66-9.69,9.66s-9.73-3.85-9.73-9.66v-15h3.36V76.72c0,4.29,2.59,6.77,6.37,6.77s6.33-2.48,6.33-6.7v-15Z"/><path class="cls-4" d="M184.54,86.26a11.08,11.08,0,0,1-2,.19c-6.84,0-4.81-9.62-11.17-9.62h-2v9.4H166V61.8h7.36c5.7,0,9,2.3,9,7.59,0,3.4-2.26,5.77-5.48,6.85,3.15,1.77,3.18,7.51,6.66,7.51a3.06,3.06,0,0,0,.74-.08ZM172.92,74.2c3.44,0,6-1.7,6-4.81s-2-4.74-5.69-4.74h-3.85V74.2Z"/><path class="cls-4" d="M212.88,83.38v2.85H197.34V61.8h3.37V83.38Z"/><path class="cls-4" d="M237,74c0,7.62-4.77,12.43-11.47,12.43S214.1,81.64,214.1,74s4.81-12.44,11.47-12.44S237,66.39,237,74Zm-3.4,0c0-5.81-3.33-9.48-8.07-9.48s-8.06,3.67-8.06,9.48,3.36,9.47,8.06,9.47S233.64,79.82,233.64,74Z"/><path class="cls-4" d="M261.68,86.23h-2a23.3,23.3,0,0,1-.52-3.45c-1.37,2.52-4,3.67-7.36,3.67-6.44,0-10.77-5-10.77-12.43s4.59-12.44,11-12.44c6.85,0,9.25,4.74,9.25,7.88l-3.11.52c0-2.33-1.7-5.44-6.1-5.44-4.18,0-7.63,3.41-7.63,9.48,0,5.66,3,9.47,7.85,9.47,4.44,0,6.66-2.81,6.66-6V77H251.1V74.16h10.58Z"/><path class="cls-4" d="M288.88,74c0,7.62-4.77,12.43-11.47,12.43S265.94,81.64,265.94,74s4.81-12.44,11.47-12.44S288.88,66.39,288.88,74Zm-3.4,0c0-5.81-3.33-9.48-8.07-9.48s-8.07,3.67-8.07,9.48,3.37,9.47,8.07,9.47S285.48,79.82,285.48,74Z"/></g><g class="cls-3"><path class="cls-4" d="M323.47,61.8V86.23h-5.25V76H307.64V86.23h-5.26V61.8h5.26v9.85h10.58V61.8Z"/><path class="cls-4" d="M334.28,66.13v5.63h9.47v4.11h-9.47v6h10.91v4.33H329V61.8h16.17v4.33Z"/><path class="cls-4" d="M369.8,86.23a11.92,11.92,0,0,1-2.7.25c-7.44,0-5.41-8.62-10.92-8.62h-1.11v8.37h-5.25V61.8h8.28c6.37,0,9.77,2.52,9.77,8.26A7,7,0,0,1,363,76.94c2.63,1.22,2.7,5.33,5.77,5.33a3.5,3.5,0,0,0,.74-.08ZM357.4,74.16c3.15,0,5.29-1.44,5.29-4.07S360.92,66,357.81,66h-2.74v8.21Z"/><path class="cls-4" d="M378.6,66.13v5.63h9.47v4.11H378.6v6h10.92v4.33H373.35V61.8h16.17v4.33Z"/></g></g><g id="Group_61" data-name="Group 61"><path id="Path_101" data-name="Path 101" class="cls-4" d="M84.67,79.5H67.86A1.54,1.54,0,0,1,66.32,78h0a1.54,1.54,0,0,1,1.54-1.54H84.67A1.54,1.54,0,0,1,86.21,78h0a1.54,1.54,0,0,1-1.54,1.54Z"/><path id="Path_102" data-name="Path 102" class="cls-4" d="M76.26,87.9a1.54,1.54,0,0,1-1.54-1.54h0V69.55A1.54,1.54,0,0,1,76.26,68h0a1.54,1.54,0,0,1,1.54,1.54h0V86.36a1.53,1.53,0,0,1-1.53,1.54Z"/></g></g><g id="Group_69" data-name="Group 69"><g id="Path_104" data-name="Path 104"><path class="cls-5" d="M28.8,28.76H427v92H28.8Z"/><path class="cls-4" d="M31.8,31.76v86H424v-86H31.8m-3-3H427v92H28.8Z"/></g></g></g></g></svg>