<svg id="Layer_1" data-name="Layer 1" xmlns="http://www.w3.org/2000/svg" viewBox="0 0 598 114"><defs><style>.cls-1,.cls-3{fill:#4e2817;}.cls-2{fill:#f26922;}.cls-3{fill-rule:evenodd;}</style></defs><title>Artboard 1</title><path class="cls-1" d="M133.73,89.1c-7.78,0-14.81-.86-21.08-7.13l8.07-8.06c4.09,4.07,9.41,4.65,13.2,4.65,4.27,0,8.74-1.43,8.74-5.13,0-2.47-1.33-4.18-5.22-4.56l-7.79-.73c-8.93-.85-14.43-4.73-14.43-13.86,0-10.23,9-15.77,19.07-15.77,7.7,0,14.15,1.36,18.88,5.79L145.58,52c-2.86-2.56-7.22-3.3-11.51-3.3-5,0-7,2.28-7,4.77,0,1.83.74,3.92,5.14,4.29l7.77.77c9.79.95,14.71,6.2,14.71,14.52,0,10.93-9.32,16.14-21,16.14Zm42.54-.58c-10.07,0-14.34-7.11-14.34-14.14V49.88h-5.22v-9.4h5.22V25.85h12.34V40.48H183v9.4h-8.74V73.62c0,2.85,1.33,4.46,4.27,4.46H183V88.53h-6.74ZM188.49,30.6V20.54h12.63V30.6Zm.19,57.93V39.05H201V88.52H188.68Zm40.24.58c-9.87,0-22.12-5.31-22.12-25.34s12.25-25.26,22.12-25.26c6.84,0,12,2.09,16.33,6.67l-8.35,8.36c-2.57-2.75-4.75-3.88-8-3.88a8.62,8.62,0,0,0-7,3.22c-1.87,2.39-2.75,5.72-2.75,10.93s.88,8.66,2.75,11a8.6,8.6,0,0,0,7,3.23c3.23,0,5.43-1.14,8-3.89l8.37,8.25c-4.37,4.55-9.5,6.75-16.32,6.75Zm50.39-.55L267.16,68l-5.22,5.87V88.6H249.58V20.94h12.36V59.3l16.43-20.23h14.9L275.61,59l19,29.56H279.31ZM304.9,67.7c0,6.38,3.89,11,10.83,11,5.39,0,8.07-1.51,11.19-4.66l7.48,7.33c-5.06,5-9.9,7.81-18.81,7.81-11.7,0-22.89-5.31-22.89-25.34,0-16.13,8.73-25.26,21.53-25.26,13.75,0,21.52,10.08,21.52,23.65v5.54H304.84ZM322.56,54A9.21,9.21,0,0,0,306,54a13.7,13.7,0,0,0-1.13,5.31H323.7A13.52,13.52,0,0,0,322.56,54Zm46-1.32c-1.9-1.87-3.52-2.94-6.55-2.94-3.82,0-8,2.86-8,9.13V88.64H341.7V39.05h12.06V43.8c2.35-2.85,7.11-5.31,12.43-5.31,4.84,0,8.25,1.23,11.66,4.65l-9.31,9.4Z"/><path class="cls-2" d="M433.38,38.49a18.87,18.87,0,0,0-14.82,6.27c-3.13-4.28-7.59-6.27-13.1-6.27a17.29,17.29,0,0,0-12.34,5.12V39.05h-12V88.52h12.36V58.61c0-6.74,4.36-9,8.25-9s8.17,2.28,8.17,9V88.52h12.36V58.33c0-6.46,4.48-8.74,8.25-8.74s8.18,2.28,8.18,9V88.52H451V56.91c0-5.42-1.43-10.07-5.43-14.06-2.75-2.75-7.19-4.36-12.14-4.36ZM487,69c0,6.74-4.37,9-8.26,9s-8.17-2.28-8.17-9V39.05H458.28V70.68c0,5.4,1.06,10.06,5,14,2.75,2.75,6.75,4.36,11.7,4.36A16.92,16.92,0,0,0,487.36,84v4.56h12.06V39.05H487.1V69Zm32.54,4.65V20.91H507.23V74.37c0,7,4.27,14.15,14.43,14.15h7V78.07H524c-3.12,0-4.37-1.51-4.37-4.45ZM574,62.12c0-13.58-7.79-23.64-21.56-23.64-12.82,0-21.55,9.12-21.55,25.26,0,20.06,11.2,25.37,22.88,25.37,8.93,0,13.77-2.75,18.8-7.77L565.1,74c-3.12,3.16-5.79,4.66-11.18,4.66-6.93,0-10.82-4.66-10.82-11H574V62.12Zm-31-2.94a13.34,13.34,0,0,1,1.14-5.32,9.2,9.2,0,0,1,16.51,0,13.48,13.48,0,0,1,1.14,5.32H543.06Z"/><path class="cls-3" d="M74.63,94a7.23,7.23,0,0,1-2.69.3,4.45,4.45,0,0,1-2.58-.41A1.62,1.62,0,0,1,69,92.83a4.81,4.81,0,0,1,.14-1.22c.09-.48.19-1.1,0-1.36s-1-.18-1.4-.41-.55-.82-.69-1.46c0-.21-.17-.4-.19-.56a11.15,11.15,0,0,1,.44-3.35c.24-1.08.56-2.09.74-3.09a20.14,20.14,0,0,0,.25-4.79,8.43,8.43,0,0,1,0-2.12c.12-.64.38-1.18.51-1.81,0-.2,0-.44,0-.66s.14-.36.14-.51A14.61,14.61,0,0,0,68.81,70a38.65,38.65,0,0,1,.11-4.63c0-.43.23-.91-.07-1.1a26,26,0,0,0-4.2.44,40,40,0,0,1-11.92-.19c-.34-.07-.68-.07-1-.14a17.18,17.18,0,0,1-6.67-3.09c-.25-.22-.58-.46-.91-.7a6.16,6.16,0,0,0-.92-.71,3.44,3.44,0,0,0-3.92,1c-.22.38-.41.85-.63,1.29s-.4.87-.58,1.29c-1,2.17-2,4.25-3,6.44A32.29,32.29,0,0,0,33.56,74c-.88,3,0,7,.62,9.87.07.26.22.51.29.81a5.29,5.29,0,0,0,1.21,2c.3.24.77.39,1.07.67a5.22,5.22,0,0,1,1,1.57c.15.24.33.52.48.81.36.64.51,1.21-.22,1.59a5.21,5.21,0,0,1-2.1.4c-.33.11-.22.55-.44.81a2.48,2.48,0,0,1-.88.4,6.78,6.78,0,0,1-3.41,0,1.44,1.44,0,0,1-.91-.73c-.19-.59.29-1.36-.15-1.84-.18-.18-.59-.14-.95-.33a2.42,2.42,0,0,1-1.25-1.32c-.59-1.46-.22-3.81-.29-5.61,0-.51-.08-1.1-.11-1.68,0-1.07-.3-2.13-.41-3.19a8.06,8.06,0,0,0-.33-1.43c-.14-.74-.29-1.58-.51-2.35a3.71,3.71,0,0,1,0-2.38c.07-.19.29-.37.4-.66a2.75,2.75,0,0,0,.22-1.29c-.11-.18-.62,0-.77-.25-.29-2.32-.66-4.66-.84-7.08-.08-.81-.08-1.65-.15-2.5-.15-1.65,0-3.37-.18-5-.08-.77-.26-1.5-.37-2.27-.3-2.2-.88-5-.44-7.15a8.54,8.54,0,0,1,1.61-3.65,24.87,24.87,0,0,1,1.87-2.09,20,20,0,0,1,2.16-1.8,10.24,10.24,0,0,1,1.58-1,12.08,12.08,0,0,1,4.55-1.14,23.54,23.54,0,0,1,5.3.22c1.62.29,3.22.55,4.79.88s3.07.73,4.53,1.1a4.85,4.85,0,0,1,.55.22c.47.11,1,.15,1.51.29a19.47,19.47,0,0,0,4.83.56,20.76,20.76,0,0,0,4.94-.41c.22-.07.37-.18.62-.26a4.82,4.82,0,0,1,.74-.14,4.81,4.81,0,0,1,.47-.3,18.13,18.13,0,0,0,2.35-1.35A6.79,6.79,0,0,1,68.48,36c.36-.11.71-.33,1.06-.44a7.39,7.39,0,0,0,2.17-.85,20.1,20.1,0,0,0,2.37-2.09c.81-.69,1.61-1.35,2.42-2,1.72-1.32,3.41-2.57,5-3.85a20.54,20.54,0,0,1,2.68-1.8c1.87-1.06,3.74-2.31,6.42-2.49a15.75,15.75,0,0,1,3.22,0c.3,0,.7.22,1,.15s.51-.51.69-.84a12.72,12.72,0,0,0,1-2c.22-.51.11-1.06.66-1s.44,1.43.48,2a16.74,16.74,0,0,0,0,1.94,1.06,1.06,0,0,0,.91.77,1.41,1.41,0,0,0,.77-.4,4.45,4.45,0,0,0,.74-.41,11.26,11.26,0,0,0,1.39-1.32c.37-.36.95-1.24,1.58-1.17,1.06.11,0,1.69-.22,2.16-.55,1.21-1.07,2.13-1.69,3.27-.26.44-.84,1.1-.84,1.57s.29.55.44.92c.07.17.11.33.18.51a24,24,0,0,1,.92,3c.25.83.44,1.69.77,2.5s.73,1.54,1,2.33c.11.22.11.47.19.66.69,1.72,1.32,3.69,2.12,5.35a5.21,5.21,0,0,1,.77,2.52,4.1,4.1,0,0,1-1.06,2.42c-.26.44-.62,1.09-1,1.21a3.47,3.47,0,0,1-.91,0c-.41.08-.7.33-1.07.37a2.23,2.23,0,0,1-2.16-1.39c-.07-.26,0-.59-.11-.88a4.12,4.12,0,0,0-1.65-2.53,6.55,6.55,0,0,0-1.61-1.23c-1-.48-2-.78-3-1.32A2,2,0,0,0,93,41.21c-.53.1-1.07,1-1.47,1.5C89,46.14,86.69,49.66,84.15,53a51,51,0,0,0-4.82,7,17.78,17.78,0,0,0-.81,2.13c-.26.73-.4,1.54-.66,2.34-1,2.79-1.28,6.2-2.16,9.13a7.53,7.53,0,0,0-.22,1c-.41,1.51-.85,3.19-1.29,4.81a19,19,0,0,0-.54,4.34c0,1.46-.11,3.53.41,4.46.29.48,1.28.66,1.67,1.17.26.35.44,1,.7,1.51s.7,1,.66,1.5a1,1,0,0,1-.62.77c-.3.16-.77.07-1.07.22s-.18.59-.51.81Z"/></svg>