<svg xmlns="http://www.w3.org/2000/svg" viewBox="0 0 360 144"><defs><style>.cls-1{fill:#919195;}.cls-2{fill:#5b7f95;}.cls-3{fill:#231f20;}</style></defs><title>creativeRemix-watermark-logo</title><g id="Layer_1" data-name="Layer 1"><path class="cls-1" d="M258.88,85.88V56.49H253v4h1.76v21.2h-2.38a2.45,2.45,0,0,1-2.28-2.28V31.67a2.46,2.46,0,0,1,2.28-2.29h2.38v8.8h4.13V25.24h-6.51A6.46,6.46,0,0,0,246,31.67V79.46a6.45,6.45,0,0,0,6.42,6.42Z"/><path class="cls-1" d="M295.06,80a2.34,2.34,0,1,1-4.67,0V31.14a2.34,2.34,0,1,1,4.67,0Zm4.13,0V31.14a6.6,6.6,0,0,0-6.51-6.51,6.53,6.53,0,0,0-6.42,6.51V80a6.53,6.53,0,0,0,6.42,6.51A6.6,6.6,0,0,0,299.19,80Z"/><path class="cls-1" d="M318.91,80V25.24h-4.14V80a2.33,2.33,0,1,1-4.66,0V25.24H306V80a6.53,6.53,0,0,0,6.43,6.51A6.61,6.61,0,0,0,318.91,80Z"/><path class="cls-1" d="M335.36,55.61A2.47,2.47,0,0,1,333,57.9h-2.3V29.38H333a2.47,2.47,0,0,1,2.36,2.29Zm4.14,0V31.67a6.54,6.54,0,0,0-6.5-6.43h-6.44V85.88h4.14V62H333A6.53,6.53,0,0,0,339.5,55.61Z"/><rect class="cls-2" x="20.53" y="94.19" width="319.4" height="2.98"/><path d="M20.07,112.85v.53a2.49,2.49,0,0,0,.69,2.07c.56.51,1.57.66,4.07.66,2.15,0,3.2-.14,3.73-.48a2.37,2.37,0,0,0,.88-2.19c0-1.78-.7-2.56-2.38-2.63-.77,0-2.91-.1-3.41-.08-1.77,0-2.2-.2-2.2-1.2a1.28,1.28,0,0,1,.33-1c.34-.31,1.31-.45,3-.45s2.64.16,3,.56c.17.2.22.44.22,1.1h1.25c0-1.07-.06-1.37-.34-1.77-.54-.86-1.55-1.13-4-1.13-2.18,0-3.27.17-3.82.58a2.54,2.54,0,0,0-.78,2.09c0,1.81.69,2.46,2.64,2.5l3.39,0c1.48,0,2,.33,2,1.41a1.26,1.26,0,0,1-.32,1c-.35.35-.92.43-3,.43-3.32,0-3.58-.13-3.56-1.77l0-.25Z"/><path d="M33.79,104.71V107H32v1.23h1.82v4.37a4.76,4.76,0,0,0,.41,2.54c.44.72,1.28,1,2.88,1s2.35-.31,2.78-1.11a4.78,4.78,0,0,0,.4-2.53v-.57H39.1v.57a3.49,3.49,0,0,1-.23,1.77c-.26.49-.65.63-1.7.63s-1.64-.18-1.94-.63-.24-.43-.27-2.14v-3.91h5.17V107H35v-2.25Z"/><path d="M43.27,107v9h1.17v-4.17c0-3.18.49-3.73,3.31-3.73,1.82,0,2.21.41,2.21,2.29V111h1.21v-.94a3.66,3.66,0,0,0-.76-2.56c-.49-.52-1.09-.67-2.51-.67a5,5,0,0,0-2.5.34,2.17,2.17,0,0,0-.89,1h-.07V107Z"/><path d="M58.34,111.88c2.68,0,3.37.31,3.37,1.5s-.61,1.49-3,1.49a9.06,9.06,0,0,1-3.05-.24,1.19,1.19,0,0,1-.57-1.21,1.51,1.51,0,0,1,.42-1.23C55.86,111.93,56.45,111.88,58.34,111.88Zm-2.93-2.21v-.11c0-1.26.47-1.47,3-1.47,1.92,0,2.58.18,3,.8a2.7,2.7,0,0,1,.35,1.72v1h-.1c-.5-.86-1-1-4-1a6.81,6.81,0,0,0-2.72.29c-.77.35-1.06,1-1.06,2.48a2.63,2.63,0,0,0,.64,2.11c.55.5,1.25.62,3.92.62,2.24,0,2.78-.19,3.34-1.17h.05l0,1H63v-4.75c0-2.15-.11-2.76-.63-3.38-.64-.8-1.48-1-4-1-3.21,0-4.14.54-4.14,2.47v.35Z"/><path d="M67.48,104.71V107H65.66v1.23h1.82v4.37a4.63,4.63,0,0,0,.42,2.54c.43.72,1.28,1,2.87,1s2.36-.31,2.79-1.11a4.89,4.89,0,0,0,.4-2.53v-.57H72.79v.57a3.49,3.49,0,0,1-.23,1.77c-.25.49-.65.63-1.69.63s-1.65-.18-2-.63-.23-.43-.27-2.14v-3.91h5.18V107H68.65v-2.25Z"/><path d="M78.23,110.57c.13-2,.74-2.48,3.3-2.48,2.88,0,3.6.49,3.62,2.48Zm7,2.64c0,.58-.09.74-.28,1-.38.53-1,.69-2.7.69-2.24,0-3-.18-3.48-.75a3.89,3.89,0,0,1-.55-2.32h8.25c0-2.14-.19-3-.76-3.77s-1.56-1.18-4.11-1.18c-1.79,0-2.64.13-3.25.54-1,.64-1.39,1.91-1.39,4.12,0,1.85.35,3.1,1.06,3.76s1.79.84,4.37.84c3,0,4-.75,4.06-2.9Z"/><path d="M94.45,108.09c2.9,0,3.5.51,3.5,3,0,1.56-.21,2.34-.76,2.81s-1.21.51-2.84.51a6.35,6.35,0,0,1-2.59-.32c-.7-.37-1-1.27-1-2.78s.27-2.37.81-2.74A5.24,5.24,0,0,1,94.45,108.09ZM98,107v1.15H97.9a2.1,2.1,0,0,0-.71-.82c-.49-.35-1-.44-2.68-.44a7.61,7.61,0,0,0-3.42.44c-1.09.59-1.6,1.84-1.6,3.92,0,1.84.34,3,1.12,3.7.6.54,1.57.75,3.65.75,2.4,0,3-.19,3.61-1.16H98c-.07,1.85-.13,2.3-.47,2.8s-1.23.82-3.53.82-3-.34-3-1.68H89.68a2.68,2.68,0,0,0,.36,1.63c.57,1,1.61,1.3,4,1.3,2.81,0,3.66-.21,4.33-1.11s.72-1.76.72-4.53V107Z"/><path d="M102.62,103v1.7h1.16V103Zm0,4v9h1.16v-9Z"/><path d="M115.21,112.71c0,1.76-.57,2.14-3,2.14a6.56,6.56,0,0,1-2.91-.39c-.67-.38-1-1.25-1-2.86,0-3,.53-3.51,3.39-3.51s3.36.39,3.38,2.09h1.22a3.53,3.53,0,0,0-.64-2.32c-.59-.76-1.59-1-4-1-1.77,0-2.64.15-3.28.58-.92.62-1.35,1.89-1.35,4.06,0,1.87.33,3.08,1,3.76s1.68.86,4.36.86c1.87,0,2.7-.25,3.28-1a3.61,3.61,0,0,0,.62-2.41Z"/><path d="M125.78,103v1.7h1.16V103Zm0,4v9h1.16v-9Z"/><path d="M130.45,107v9h1.16v-4.17c0-1.72.07-2.15.44-2.67.51-.77,1.43-1.06,3.26-1.06,1.61,0,2.34.21,2.73.79s.41,1,.41,2.63V116h1.17V110.9c0-1.69-.16-2.46-.6-3.06-.58-.77-1.46-1-3.59-1-2.42,0-3.24.3-3.72,1.47h-.1V107Z"/><path d="M144.15,104.71V107h-1.82v1.23h1.82v4.37a4.66,4.66,0,0,0,.41,2.54c.43.72,1.28,1,2.88,1s2.35-.31,2.78-1.11a4.78,4.78,0,0,0,.4-2.53v-.57h-1.17v.57a3.66,3.66,0,0,1-.22,1.77c-.25.49-.66.63-1.69.63s-1.65-.18-2-.63-.23-.43-.27-2.14v-3.91h5.18V107h-5.18v-2.25Z"/><path d="M154.89,110.57c.13-2,.75-2.48,3.31-2.48,2.87,0,3.6.49,3.61,2.48Zm7,2.64c-.05.58-.08.74-.28,1-.38.53-1,.69-2.7.69-2.24,0-3-.18-3.48-.75a3.9,3.9,0,0,1-.54-2.32h8.24c0-2.14-.19-3-.75-3.77s-1.57-1.18-4.12-1.18c-1.79,0-2.64.13-3.25.54-.95.64-1.39,1.91-1.39,4.12,0,1.85.36,3.1,1.06,3.76s1.79.84,4.38.84c2.95,0,4-.75,4.06-2.9Z"/><path d="M171.12,108.09c2.9,0,3.49.51,3.49,3,0,1.56-.2,2.34-.75,2.81s-1.21.51-2.84.51a6.35,6.35,0,0,1-2.59-.32c-.71-.37-1-1.27-1-2.78s.27-2.37.81-2.74A5.2,5.2,0,0,1,171.12,108.09Zm3.49-1.13,0,1.15h-.08a2,2,0,0,0-.7-.82c-.49-.35-1.06-.44-2.68-.44a7.61,7.61,0,0,0-3.42.44c-1.09.59-1.6,1.84-1.6,3.92,0,1.84.33,3,1.12,3.7.59.54,1.56.75,3.64.75,2.4,0,3-.19,3.62-1.16h.07c-.06,1.85-.12,2.3-.46,2.8s-1.23.82-3.53.82-3-.34-3.05-1.68h-1.22a2.69,2.69,0,0,0,.35,1.63c.58,1,1.62,1.3,4,1.3,2.82,0,3.67-.21,4.33-1.11s.73-1.76.73-4.53V107Z"/><path d="M179.39,107v9h1.17v-4.17c0-3.18.5-3.73,3.31-3.73,1.82,0,2.22.41,2.22,2.29V111h1.2v-.94a3.71,3.71,0,0,0-.75-2.56c-.5-.52-1.09-.67-2.52-.67a5,5,0,0,0-2.5.34,2.1,2.1,0,0,0-.88,1h-.08V107Z"/><path d="M194.46,111.88c2.69,0,3.38.31,3.38,1.5s-.61,1.49-3,1.49a9.14,9.14,0,0,1-3.06-.24,1.19,1.19,0,0,1-.57-1.21,1.48,1.48,0,0,1,.43-1.23C192,111.93,192.58,111.88,194.46,111.88Zm-2.92-2.21v-.11c0-1.26.46-1.47,3-1.47,1.92,0,2.59.18,3,.8a2.7,2.7,0,0,1,.35,1.72v1h-.1c-.51-.86-1-1-4.06-1a6.74,6.74,0,0,0-2.71.29c-.77.35-1.06,1-1.06,2.48a2.6,2.6,0,0,0,.64,2.11c.54.5,1.25.62,3.91.62,2.24,0,2.79-.19,3.34-1.17h.05v1h1.16v-4.75c0-2.15-.11-2.76-.62-3.38-.64-.8-1.49-1-4-1-3.2,0-4.12.54-4.12,2.47v.35Z"/><path d="M203.61,104.71V107h-1.82v1.23h1.82v4.37a4.54,4.54,0,0,0,.42,2.54c.42.72,1.27,1,2.87,1s2.35-.31,2.78-1.11a4.89,4.89,0,0,0,.4-2.53v-.57h-1.17v.57a3.66,3.66,0,0,1-.22,1.77c-.25.49-.65.63-1.7.63s-1.64-.18-1.94-.63-.24-.43-.28-2.14v-3.91H210V107h-5.18v-2.25Z"/><path d="M214.35,110.57c.13-2,.75-2.48,3.31-2.48,2.87,0,3.59.49,3.61,2.48Zm7,2.64c0,.58-.08.74-.28,1-.38.53-1,.69-2.7.69-2.24,0-3-.18-3.48-.75a3.9,3.9,0,0,1-.54-2.32h8.25c0-2.14-.2-3-.76-3.77s-1.56-1.18-4.12-1.18c-1.79,0-2.64.13-3.24.54-1,.64-1.4,1.91-1.4,4.12,0,1.85.36,3.1,1.06,3.76s1.79.84,4.38.84c2.95,0,4-.75,4.06-2.9Z"/><path d="M230.55,108.07c3,0,3.53.51,3.53,3.42,0,1.58-.2,2.36-.72,2.83s-1.26.55-3.14.55c-2.8,0-3.36-.57-3.36-3.36,0-1.61.21-2.44.74-2.89S228.81,108.07,230.55,108.07Zm4.66-5.09H234v5H234c-.49-1-1.19-1.21-3.2-1.21-2.26,0-3.17.14-3.78.57-.94.66-1.35,1.93-1.35,4.12s.34,3.23,1.23,3.94c.65.51,1.52.66,3.58.66,2.38,0,3-.21,3.56-1.26h.07V116h1.15Z"/><path d="M244.65,112.85v.53a2.49,2.49,0,0,0,.69,2.07c.56.51,1.57.66,4.08.66,2.14,0,3.19-.14,3.72-.48a2.37,2.37,0,0,0,.88-2.19c0-1.78-.7-2.56-2.39-2.63-.76,0-2.9-.1-3.4-.08-1.77,0-2.2-.2-2.2-1.2a1.28,1.28,0,0,1,.33-1c.34-.31,1.31-.45,3-.45s2.64.16,3,.56c.18.2.23.44.23,1.1h1.25c0-1.07-.06-1.37-.34-1.77-.55-.86-1.55-1.13-4-1.13-2.19,0-3.27.17-3.82.58a2.54,2.54,0,0,0-.78,2.09c0,1.81.69,2.46,2.64,2.5l3.38,0c1.49,0,2,.33,2,1.41a1.26,1.26,0,0,1-.32,1c-.35.35-.93.43-3,.43-3.33,0-3.58-.13-3.57-1.77v-.25Z"/><path d="M261.79,108.09a6.34,6.34,0,0,1,2.76.35c.74.39,1,1.22,1,3,0,1.58-.2,2.38-.67,2.85s-1.14.59-2.85.59a6.54,6.54,0,0,1-2.57-.3c-.85-.37-1.17-1.19-1.17-3C258.32,108.62,258.85,108.09,261.79,108.09Zm-.1-1.24c-1.75,0-2.59.13-3.2.52-1,.64-1.42,1.91-1.42,4.16s.38,3.3,1.31,3.94c.68.49,1.59.64,3.78.64,1.87,0,2.69-.15,3.34-.58.92-.65,1.32-1.87,1.32-4.06s-.37-3.28-1.26-4C264.92,107,264,106.85,261.69,106.85Z"/><rect x="270.15" y="102.98" width="1.17" height="13.01"/><path d="M274.77,107v5c0,1.88.2,2.74.72,3.3s1.52.86,3.34.86c2.3,0,3.07-.31,3.66-1.46h.07V116h1.16v-9h-1.16v4.47a4,4,0,0,1-.42,2.36c-.49.78-1.41,1.08-3.18,1.08-1.38,0-2.06-.18-2.48-.61s-.54-1-.54-2.73V107Z"/><path d="M288.3,104.71V107h-1.83v1.23h1.83v4.37a4.66,4.66,0,0,0,.41,2.54c.43.72,1.28,1,2.88,1s2.35-.31,2.78-1.11a4.92,4.92,0,0,0,.39-2.53v-.57H293.6v.57a3.49,3.49,0,0,1-.23,1.77c-.25.49-.65.63-1.69.63s-1.64-.18-1.95-.63-.24-.43-.26-2.14v-3.91h5.16V107h-5.16v-2.25Z"/><path d="M297.82,103v1.7H299V103Zm0,4v9H299v-9Z"/><path d="M307.05,108.09a6.34,6.34,0,0,1,2.76.35c.74.39,1,1.22,1,3,0,1.58-.18,2.38-.67,2.85s-1.13.59-2.85.59a6.51,6.51,0,0,1-2.56-.3c-.86-.37-1.17-1.19-1.17-3C303.58,108.62,304.11,108.09,307.05,108.09Zm-.1-1.24c-1.75,0-2.58.13-3.19.52-1,.64-1.43,1.91-1.43,4.16s.39,3.3,1.31,3.94c.68.49,1.59.64,3.77.64,1.87,0,2.71-.15,3.35-.58.92-.65,1.32-1.87,1.32-4.06s-.37-3.28-1.26-4C310.18,107,309.27,106.85,307,106.85Z"/><path d="M315.37,107v9h1.16v-4.17c0-1.72.07-2.15.43-2.67.51-.77,1.44-1.06,3.26-1.06,1.62,0,2.35.21,2.73.79s.42,1,.42,2.63V116h1.17V110.9c0-1.69-.16-2.46-.61-3.06-.58-.77-1.45-1-3.58-1-2.43,0-3.25.3-3.73,1.47h-.09V107Z"/><path d="M327.72,112.85v.53a2.46,2.46,0,0,0,.69,2.07c.55.51,1.56.66,4.07.66,2.15,0,3.2-.14,3.73-.48a2.36,2.36,0,0,0,.87-2.19c0-1.78-.7-2.56-2.38-2.63-.76,0-2.91-.1-3.4-.08-1.78,0-2.21-.2-2.21-1.2a1.25,1.25,0,0,1,.34-1c.34-.31,1.31-.45,2.95-.45s2.64.16,3,.56c.18.2.23.44.23,1.1h1.25c0-1.07-.07-1.37-.34-1.77-.55-.86-1.55-1.13-4-1.13-2.19,0-3.27.17-3.82.58a2.51,2.51,0,0,0-.79,2.09c0,1.81.7,2.46,2.64,2.5l3.4,0c1.48,0,2,.33,2,1.41a1.3,1.3,0,0,1-.32,1c-.35.35-.93.43-3,.43-3.32,0-3.58-.13-3.56-1.77l0-.25Z"/><polyline class="cls-1" points="31.02 77.72 31.02 80.12 22.53 80.12 22.53 84.86 20.69 84.86 20.69 72.96 22.53 72.96 22.53 77.72 31.02 77.72"/><polyline class="cls-1" points="20.69 62.02 20.69 59.62 24.69 59.62 24.69 52.12 20.69 52.12 20.69 49.7 31.02 49.7 31.02 52.12 26.58 52.12 26.58 59.62 31.02 59.62 31.02 62.02 20.69 62.02"/><polyline class="cls-1" points="20.69 36.43 20.69 25.87 22.45 25.87 22.45 34.03 24.76 34.03 24.76 29.27 26.52 29.27 26.52 34.03 29.07 34.03 29.07 25.77 31.02 25.77 31.02 36.43 20.69 36.43"/><path class="cls-3" d="M63.43,80V25.24H59.29V80a2.33,2.33,0,1,1-4.66,0V25.24H50.49V80a2.33,2.33,0,1,1-4.66,0V25.24H41.69V80a6.55,6.55,0,0,0,6.43,6.51,6.65,6.65,0,0,0,4.4-1.76A6.47,6.47,0,0,0,63.43,80Z"/><path class="cls-3" d="M80.77,56.49H76.11V31.14a2.33,2.33,0,1,1,4.66,0Zm4.14,29.39V31.14a6.62,6.62,0,0,0-6.52-6.51A6.53,6.53,0,0,0,72,31.14V85.88h4.14V60.53h4.66V85.88Z"/><polygon class="cls-3" points="102.24 29.38 102.24 25.24 89.92 25.24 89.92 29.38 94.06 29.38 94.06 85.88 98.11 85.88 98.11 29.38 102.24 29.38"/><polygon class="cls-3" points="118.7 85.88 118.7 81.74 113.15 81.74 113.15 56.14 118.7 56.14 118.7 52.09 113.15 52.09 113.15 29.38 118.7 29.38 118.7 25.24 109.02 25.24 109.02 85.88 118.7 85.88"/><path class="cls-3" d="M170.36,85.88V31.14a6.47,6.47,0,0,0-10.91-4.75,6.65,6.65,0,0,0-4.4-1.76,6.53,6.53,0,0,0-6.42,6.51V85.88h4.13V31.14a2.33,2.33,0,1,1,4.66,0V85.88h4.14V31.14a2.33,2.33,0,1,1,4.66,0V85.88Z"/><path class="cls-3" d="M187.7,56.49H183V31.14a2.34,2.34,0,1,1,4.67,0Zm4.14,29.39V31.14a6.62,6.62,0,0,0-6.52-6.51,6.53,6.53,0,0,0-6.42,6.51V85.88H183V60.53h4.67V85.88Z"/><polygon class="cls-3" points="235.66 85.88 235.66 63.7 229.41 54.11 235.66 44.52 235.66 25.24 231.53 25.24 231.53 43.11 226.86 50.33 226.86 25.24 222.72 25.24 222.72 85.88 226.86 85.88 226.86 57.98 231.53 65.11 231.53 85.88 235.66 85.88"/><path d="M207.68,25.24h-6.43V85.88h4.14V58l4.66,7.12V85.88h4.14V63.7l-5-7.61a6.52,6.52,0,0,0,5-6.22V31.67A6.54,6.54,0,0,0,207.68,25.24Zm-2.29,4.14h2.28a2.47,2.47,0,0,1,2.38,2.29h0V49.87a2.48,2.48,0,0,1-2.38,2.29h-2.29Z"/><path d="M133.57,25.24h-6.42V85.88h4.14V58L136,65.1V85.88h4.13V63.7l-5-7.61a6.51,6.51,0,0,0,5-6.22V31.67A6.53,6.53,0,0,0,133.57,25.24Zm-2.28,4.14h2.28A2.47,2.47,0,0,1,136,31.67h0V49.87a2.48,2.48,0,0,1-2.38,2.29h-2.28Z"/><path class="cls-1" d="M273,25.24h-6.43V85.88h4.14V58l4.66,7.12V85.88h4.14V63.7l-5-7.61a6.52,6.52,0,0,0,5-6.22V31.67A6.54,6.54,0,0,0,273,25.24Zm-2.29,4.14H273a2.47,2.47,0,0,1,2.37,2.29h0V49.87A2.48,2.48,0,0,1,273,52.16h-2.29Z"/></g></svg>